# Created by FreeCAD <https://www.freecad.org>
v 3.875134 92.725372 2.400000
v 0.000000 96.000000 2.400000
v 0.000000 15.000000 2.400000
v 3.753812 92.843704 2.400000
v 3.644875 92.973534 2.400000
v 4.007636 92.619705 2.400000
v 3.549406 93.113564 2.400000
v 4.150000 92.527756 2.400000
v 3.468353 93.262398 2.400000
v 4.300812 92.450439 2.400000
v 3.402523 93.418564 2.400000
v 4.458573 92.388527 2.400000
v 3.352569 93.580513 2.400000
v 4.621715 92.342621 2.400000
v 3.318988 93.746628 2.400000
v 4.788616 92.313194 2.400000
v 3.302113 93.915260 2.400000
v 4.957618 92.300529 2.400000
v 3.302113 94.084740 2.400000
v 5.127041 92.304756 2.400000
v 3.318988 94.253372 2.400000
v 5.295202 92.325829 2.400000
v 3.352569 94.419487 2.400000
v 5.460429 92.363541 2.400000
v 3.402523 94.581436 2.400000
v 5.621080 92.417511 2.400000
v 3.468353 94.737602 2.400000
v 5.775558 92.487221 2.400000
v 3.549406 94.886436 2.400000
v 0.014446 96.294052 2.400000
v 5.922328 92.571953 2.400000
v 3.644875 95.026466 2.400000
v 0.228361 97.148048 2.400000
v 0.129179 96.870857 2.400000
v 0.057644 96.585274 2.400000
v 6.059933 92.670883 2.400000
v 3.753812 95.156296 2.400000
v 0.680969 97.903183 2.400000
v 0.505591 97.666710 2.400000
v 0.354236 97.414192 2.400000
v 6.187003 92.783028 2.400000
v 0.878680 98.121323 2.400000
v 1.096820 98.319031 2.400000
v 3.875134 95.274628 2.400000
v 1.333289 98.494408 2.400000
v 1.585810 98.645767 2.400000
v 1.851950 98.771637 2.400000
v 2.129146 98.870819 2.400000
v 4.007636 95.380295 2.400000
v 2.414729 98.942352 2.400000
v 2.705949 98.985558 2.400000
v 3.000000 99.000000 2.400000
v 6.187003 95.216972 2.400000
v 6.302276 95.092735 2.400000
v 6.059933 95.329117 2.400000
v 5.922328 95.428047 2.400000
v 5.775558 95.512779 2.400000
v 5.621080 95.582489 2.400000
v 5.460429 95.636459 2.400000
v 5.295202 95.674171 2.400000
v 5.127041 95.695244 2.400000
v 4.957618 95.699471 2.400000
v 4.788616 95.686806 2.400000
v 4.621715 95.657379 2.400000
v 4.458573 95.611473 2.400000
v 4.300812 95.549561 2.400000
v 4.150000 95.472244 2.400000
v 99.000000 29.000000 2.400000
v 111.000000 15.000000 2.400000
v 111.000000 29.000000 2.400000
v 99.000000 69.000000 2.400000
v 6.666293 93.663155 2.400000
v 6.624474 93.498917 2.400000
v 6.691552 93.830734 2.400000
v 6.302276 92.907265 2.400000
v 6.404606 93.042358 2.400000
v 6.492977 93.186966 2.400000
v 6.566510 93.339661 2.400000
v 104.875137 92.725372 2.400000
v 104.753815 92.843704 2.400000
v 104.644875 92.973534 2.400000
v 105.007637 92.619705 2.400000
v 104.549408 93.113564 2.400000
v 105.150002 92.527756 2.400000
v 104.468353 93.262398 2.400000
v 105.300812 92.450439 2.400000
v 104.402519 93.418564 2.400000
v 105.458572 92.388527 2.400000
v 104.352570 93.580513 2.400000
v 105.621712 92.342621 2.400000
v 104.318985 93.746628 2.400000
v 105.788612 92.313194 2.400000
v 104.302116 93.915260 2.400000
v 6.700000 94.000000 2.400000
v 105.957619 92.300529 2.400000
v 111.000000 69.000000 2.400000
v 104.302116 94.084740 2.400000
v 6.691552 94.169266 2.400000
v 106.127045 92.304756 2.400000
v 104.318985 94.253372 2.400000
v 6.666293 94.336845 2.400000
v 106.295204 92.325829 2.400000
v 104.352570 94.419487 2.400000
v 6.624474 94.501083 2.400000
v 106.460426 92.363541 2.400000
v 104.402519 94.581436 2.400000
v 6.566510 94.660339 2.400000
v 106.621078 92.417511 2.400000
v 104.468353 94.737602 2.400000
v 6.492977 94.813034 2.400000
v 106.775558 92.487221 2.400000
v 104.549408 94.886436 2.400000
v 6.404606 94.957642 2.400000
v 106.922325 92.571953 2.400000
v 104.644875 95.026466 2.400000
v 107.059929 92.670883 2.400000
v 104.753815 95.156296 2.400000
v 107.187004 92.783028 2.400000
v 107.302277 92.907265 2.400000
v 111.000000 96.000000 2.400000
v 107.691551 94.169266 2.400000
v 107.699997 94.000000 2.400000
v 107.666290 94.336845 2.400000
v 107.624474 94.501083 2.400000
v 107.566513 94.660339 2.400000
v 107.492973 94.813034 2.400000
v 107.404610 94.957642 2.400000
v 107.404610 93.042358 2.400000
v 107.492973 93.186966 2.400000
v 107.566513 93.339661 2.400000
v 107.624474 93.498917 2.400000
v 107.666290 93.663155 2.400000
v 107.691551 93.830734 2.400000
v 108.000000 99.000000 2.400000
v 106.775558 95.512779 2.400000
v 106.922325 95.428047 2.400000
v 106.621078 95.582489 2.400000
v 106.460426 95.636459 2.400000
v 106.295204 95.674171 2.400000
v 106.127045 95.695244 2.400000
v 105.957619 95.699471 2.400000
v 105.788612 95.686806 2.400000
v 105.621712 95.657379 2.400000
v 105.458572 95.611473 2.400000
v 105.300812 95.549561 2.400000
v 105.150002 95.472244 2.400000
v 105.007637 95.380295 2.400000
v 104.875137 95.274628 2.400000
v 110.985558 96.294052 2.400000
v 108.294052 98.985558 2.400000
v 110.942352 96.585274 2.400000
v 108.585274 98.942352 2.400000
v 107.059929 95.329117 2.400000
v 108.870857 98.870819 2.400000
v 110.870819 96.870857 2.400000
v 107.302277 95.092735 2.400000
v 109.148048 98.771637 2.400000
v 110.771637 97.148048 2.400000
v 109.414192 98.645767 2.400000
v 107.187004 95.216972 2.400000
v 110.645767 97.414192 2.400000
v 109.666710 98.494408 2.400000
v 110.494408 97.666710 2.400000
v 109.903183 98.319031 2.400000
v 110.319031 97.903183 2.400000
v 110.121323 98.121323 2.400000
v 0.000000 96.000000 0.000000
v 0.000000 15.000000 1.000000
v 0.000000 10.300000 0.000000
v 0.000000 10.300000 1.000000
v 111.000000 15.000000 1.000000
v 3.000000 99.000000 0.000000
v 2.705949 98.985558 0.000000
v 2.414729 98.942352 0.000000
v 2.129146 98.870819 0.000000
v 1.851950 98.771637 0.000000
v 1.585810 98.645767 0.000000
v 1.333289 98.494408 0.000000
v 1.096820 98.319031 0.000000
v 0.878680 98.121323 0.000000
v 0.680969 97.903183 0.000000
v 0.505591 97.666710 0.000000
v 0.354236 97.414192 0.000000
v 0.228361 97.148048 0.000000
v 0.129179 96.870857 0.000000
v 0.057644 96.585274 0.000000
v 0.014446 96.294052 0.000000
v 111.000000 29.000000 0.000000
v 111.000000 10.300000 1.000000
v 111.000000 10.300000 0.000000
v 108.000000 99.000000 0.000000
v 99.000000 29.000000 0.000000
v 111.000000 96.000000 0.000000
v 110.985558 96.294052 0.000000
v 110.942352 96.585274 0.000000
v 110.870819 96.870857 0.000000
v 110.771637 97.148048 0.000000
v 110.645767 97.414192 0.000000
v 110.494408 97.666710 0.000000
v 110.319031 97.903183 0.000000
v 110.121323 98.121323 0.000000
v 109.903183 98.319031 0.000000
v 109.666710 98.494408 0.000000
v 109.414192 98.645767 0.000000
v 109.148048 98.771637 0.000000
v 108.870857 98.870819 0.000000
v 108.585274 98.942352 0.000000
v 108.294052 98.985558 0.000000
v 99.000000 69.000000 0.000000
v 111.000000 69.000000 0.000000
v 6.700000 94.000000 0.000000
v 6.691552 94.169266 0.000000
v 6.666293 94.336845 0.000000
v 6.624474 94.501083 0.000000
v 6.566510 94.660339 0.000000
v 6.492977 94.813034 0.000000
v 6.404606 94.957642 0.000000
v 6.302276 95.092735 0.000000
v 6.187003 95.216972 0.000000
v 6.059933 95.329117 0.000000
v 5.922328 95.428047 0.000000
v 5.775558 95.512779 0.000000
v 5.621080 95.582489 0.000000
v 5.460429 95.636459 0.000000
v 5.295202 95.674171 0.000000
v 5.127041 95.695244 0.000000
v 4.957618 95.699471 0.000000
v 4.788616 95.686806 0.000000
v 4.621715 95.657379 0.000000
v 4.458573 95.611473 0.000000
v 4.300812 95.549561 0.000000
v 4.150000 95.472244 0.000000
v 4.007636 95.380295 0.000000
v 3.875134 95.274628 0.000000
v 3.753812 95.156296 0.000000
v 3.644875 95.026466 0.000000
v 3.549406 94.886436 0.000000
v 3.468353 94.737602 0.000000
v 3.402523 94.581436 0.000000
v 3.352569 94.419487 0.000000
v 3.318988 94.253372 0.000000
v 3.302113 94.084740 0.000000
v 3.302113 93.915260 0.000000
v 3.318988 93.746628 0.000000
v 3.352569 93.580513 0.000000
v 3.402523 93.418564 0.000000
v 3.468353 93.262398 0.000000
v 3.549406 93.113564 0.000000
v 3.644875 92.973534 0.000000
v 3.753812 92.843704 0.000000
v 3.875134 92.725372 0.000000
v 4.007636 92.619705 0.000000
v 4.150000 92.527756 0.000000
v 4.300812 92.450439 0.000000
v 4.458573 92.388527 0.000000
v 4.621715 92.342621 0.000000
v 4.788616 92.313194 0.000000
v 4.957618 92.300529 0.000000
v 5.127041 92.304756 0.000000
v 5.295202 92.325829 0.000000
v 5.460429 92.363541 0.000000
v 5.621080 92.417511 0.000000
v 5.775558 92.487221 0.000000
v 5.922328 92.571953 0.000000
v 6.059933 92.670883 0.000000
v 6.187003 92.783028 0.000000
v 6.302276 92.907265 0.000000
v 6.404606 93.042358 0.000000
v 6.492977 93.186966 0.000000
v 6.566510 93.339661 0.000000
v 6.624474 93.498917 0.000000
v 6.666293 93.663155 0.000000
v 6.691552 93.830734 0.000000
v 107.699997 94.000000 0.000000
v 107.691551 94.169266 0.000000
v 107.666290 94.336845 0.000000
v 107.624474 94.501083 0.000000
v 107.566513 94.660339 0.000000
v 107.492973 94.813034 0.000000
v 107.404610 94.957642 0.000000
v 107.302277 95.092735 0.000000
v 107.187004 95.216972 0.000000
v 107.059929 95.329117 0.000000
v 106.922325 95.428047 0.000000
v 106.775558 95.512779 0.000000
v 106.621078 95.582489 0.000000
v 106.460426 95.636459 0.000000
v 106.295204 95.674171 0.000000
v 106.127045 95.695244 0.000000
v 105.957619 95.699471 0.000000
v 105.788612 95.686806 0.000000
v 105.621712 95.657379 0.000000
v 105.458572 95.611473 0.000000
v 105.300812 95.549561 0.000000
v 105.150002 95.472244 0.000000
v 105.007637 95.380295 0.000000
v 104.875137 95.274628 0.000000
v 104.753815 95.156296 0.000000
v 104.644875 95.026466 0.000000
v 104.549408 94.886436 0.000000
v 104.468353 94.737602 0.000000
v 104.402519 94.581436 0.000000
v 104.352570 94.419487 0.000000
v 104.318985 94.253372 0.000000
v 104.302116 94.084740 0.000000
v 104.302116 93.915260 0.000000
v 104.318985 93.746628 0.000000
v 104.352570 93.580513 0.000000
v 104.402519 93.418564 0.000000
v 104.468353 93.262398 0.000000
v 104.549408 93.113564 0.000000
v 104.644875 92.973534 0.000000
v 104.753815 92.843704 0.000000
v 104.875137 92.725372 0.000000
v 105.007637 92.619705 0.000000
v 105.150002 92.527756 0.000000
v 105.300812 92.450439 0.000000
v 105.458572 92.388527 0.000000
v 105.621712 92.342621 0.000000
v 105.788612 92.313194 0.000000
v 105.957619 92.300529 0.000000
v 106.127045 92.304756 0.000000
v 106.295204 92.325829 0.000000
v 106.460426 92.363541 0.000000
v 106.621078 92.417511 0.000000
v 106.775558 92.487221 0.000000
v 106.922325 92.571953 0.000000
v 107.059929 92.670883 0.000000
v 107.187004 92.783028 0.000000
v 107.302277 92.907265 0.000000
v 107.404610 93.042358 0.000000
v 107.492973 93.186966 0.000000
v 107.566513 93.339661 0.000000
v 107.624474 93.498917 0.000000
v 107.666290 93.663155 0.000000
v 107.691551 93.830734 0.000000
vn 0.000000 0.000000 1.000000
vn 0.000000 0.000000 1.000000
vn 0.000000 0.000000 1.000000
vn 0.000000 0.000000 1.000000
vn 0.000000 0.000000 1.000000
vn 0.000000 0.000000 1.000000
vn 0.000000 0.000000 1.000000
vn 0.000000 0.000000 1.000000
vn 0.000000 0.000000 1.000000
vn 0.000000 0.000000 1.000000
vn 0.000000 0.000000 1.000000
vn 0.000000 0.000000 1.000000
vn 0.000000 0.000000 1.000000
vn 0.000000 0.000000 1.000000
vn 0.000000 0.000000 1.000000
vn 0.000000 0.000000 1.000000
vn 0.000000 0.000000 1.000000
vn 0.000000 0.000000 1.000000
vn 0.000000 0.000000 1.000000
vn 0.000000 0.000000 1.000000
vn 0.000000 0.000000 1.000000
vn 0.000000 0.000000 1.000000
vn 0.000000 0.000000 1.000000
vn 0.000000 0.000000 1.000000
vn 0.000000 0.000000 1.000000
vn 0.000000 0.000000 1.000000
vn 0.000000 0.000000 1.000000
vn 0.000000 0.000000 1.000000
vn 0.000000 0.000000 1.000000
vn 0.000000 0.000000 1.000000
vn 0.000000 0.000000 1.000000
vn 0.000000 0.000000 1.000000
vn 0.000000 0.000000 1.000000
vn 0.000000 0.000000 1.000000
vn 0.000000 0.000000 1.000000
vn 0.000000 0.000000 1.000000
vn 0.000000 0.000000 1.000000
vn 0.000000 0.000000 1.000000
vn 0.000000 0.000000 1.000000
vn 0.000000 0.000000 1.000000
vn 0.000000 0.000000 1.000000
vn 0.000000 0.000000 1.000000
vn 0.000000 0.000000 1.000000
vn 0.000000 0.000000 1.000000
vn 0.000000 0.000000 1.000000
vn 0.000000 0.000000 1.000000
vn 0.000000 0.000000 1.000000
vn 0.000000 0.000000 1.000000
vn 0.000000 0.000000 1.000000
vn 0.000000 0.000000 1.000000
vn 0.000000 0.000000 1.000000
vn 0.000000 0.000000 1.000000
vn 0.000000 0.000000 1.000000
vn 0.000000 0.000000 1.000000
vn 0.000000 0.000000 1.000000
vn 0.000000 0.000000 1.000000
vn 0.000000 0.000000 1.000000
vn 0.000000 0.000000 1.000000
vn 0.000000 0.000000 1.000000
vn 0.000000 0.000000 1.000000
vn 0.000000 0.000000 1.000000
vn 0.000000 0.000000 1.000000
vn 0.000000 0.000000 1.000000
vn 0.000000 0.000000 1.000000
vn 0.000000 0.000000 1.000000
vn 0.000000 0.000000 1.000000
vn 0.000000 0.000000 1.000000
vn 0.000000 0.000000 1.000000
vn 0.000000 0.000000 1.000000
vn 0.000000 0.000000 1.000000
vn 0.000000 0.000000 1.000000
vn 0.000000 0.000000 1.000000
vn 0.000000 0.000000 1.000000
vn 0.000000 0.000000 1.000000
vn 0.000000 0.000000 1.000000
vn 0.000000 0.000000 1.000000
vn 0.000000 0.000000 1.000000
vn 0.000000 0.000000 1.000000
vn 0.000000 0.000000 1.000000
vn 0.000000 0.000000 1.000000
vn 0.000000 0.000000 1.000000
vn 0.000000 0.000000 1.000000
vn 0.000000 0.000000 1.000000
vn 0.000000 0.000000 1.000000
vn 0.000000 0.000000 1.000000
vn 0.000000 0.000000 1.000000
vn 0.000000 0.000000 1.000000
vn 0.000000 0.000000 1.000000
vn 0.000000 0.000000 1.000000
vn 0.000000 0.000000 1.000000
vn 0.000000 0.000000 1.000000
vn 0.000000 0.000000 1.000000
vn 0.000000 0.000000 1.000000
vn 0.000000 0.000000 1.000000
vn 0.000000 0.000000 1.000000
vn 0.000000 0.000000 1.000000
vn 0.000000 0.000000 1.000000
vn 0.000000 0.000000 1.000000
vn 0.000000 0.000000 1.000000
vn 0.000000 0.000000 1.000000
vn 0.000000 0.000000 1.000000
vn 0.000000 0.000000 1.000000
vn 0.000000 0.000000 1.000000
vn 0.000000 0.000000 1.000000
vn 0.000000 0.000000 1.000000
vn 0.000000 0.000000 1.000000
vn 0.000000 0.000000 1.000000
vn 0.000000 0.000000 1.000000
vn 0.000000 0.000000 1.000000
vn 0.000000 0.000000 1.000000
vn 0.000000 0.000000 1.000000
vn 0.000000 0.000000 1.000000
vn 0.000000 0.000000 1.000000
vn 0.000000 0.000000 1.000000
vn 0.000000 0.000000 1.000000
vn 0.000000 0.000000 1.000000
vn 0.000000 0.000000 1.000000
vn 0.000000 0.000000 1.000000
vn 0.000000 0.000000 1.000000
vn 0.000000 0.000000 1.000000
vn 0.000000 0.000000 1.000000
vn 0.000000 0.000000 1.000000
vn 0.000000 0.000000 1.000000
vn 0.000000 0.000000 1.000000
vn 0.000000 0.000000 1.000000
vn 0.000000 0.000000 1.000000
vn 0.000000 0.000000 1.000000
vn 0.000000 0.000000 1.000000
vn 0.000000 0.000000 1.000000
vn 0.000000 0.000000 1.000000
vn 0.000000 0.000000 1.000000
vn 0.000000 0.000000 1.000000
vn 0.000000 0.000000 1.000000
vn 0.000000 0.000000 1.000000
vn 0.000000 0.000000 1.000000
vn 0.000000 0.000000 1.000000
vn 0.000000 0.000000 1.000000
vn 0.000000 0.000000 1.000000
vn 0.000000 0.000000 1.000000
vn 0.000000 0.000000 1.000000
vn 0.000000 0.000000 1.000000
vn 0.000000 0.000000 1.000000
vn 0.000000 0.000000 1.000000
vn 0.000000 0.000000 1.000000
vn 0.000000 0.000000 1.000000
vn 0.000000 0.000000 1.000000
vn 0.000000 0.000000 1.000000
vn 0.000000 0.000000 1.000000
vn 0.000000 0.000000 1.000000
vn 0.000000 0.000000 1.000000
vn 0.000000 0.000000 1.000000
vn 0.000000 0.000000 1.000000
vn 0.000000 0.000000 1.000000
vn 0.000000 0.000000 1.000000
vn 0.000000 0.000000 1.000000
vn 0.000000 0.000000 1.000000
vn 0.000000 0.000000 1.000000
vn 0.000000 0.000000 1.000000
vn 0.000000 0.000000 1.000000
vn 0.000000 0.000000 1.000000
vn 0.000000 0.000000 1.000000
vn 0.000000 0.000000 1.000000
vn 0.000000 0.000000 1.000000
vn 0.000000 0.000000 1.000000
vn 0.000000 0.000000 1.000000
vn 0.000000 0.000000 1.000000
vn 0.000000 0.000000 1.000000
vn 0.000000 0.000000 1.000000
vn -1.000000 0.000000 0.000000
vn -1.000000 0.000000 0.000000
vn -1.000000 0.000000 0.000000
vn -1.000000 0.000000 0.000000
vn 0.000000 -1.000000 0.000000
vn 0.000000 -1.000000 0.000000
vn -0.049056 0.998796 0.000000
vn -0.049056 0.998796 0.000000
vn -0.146754 0.989173 0.000000
vn -0.146754 0.989173 0.000000
vn -0.242975 0.970033 0.000000
vn -0.242975 0.970033 0.000000
vn -0.336889 0.941544 0.000000
vn -0.336889 0.941544 0.000000
vn -0.427541 0.903996 0.000000
vn -0.427541 0.903996 0.000000
vn -0.514114 0.857722 0.000000
vn -0.595698 0.803209 0.000000
vn -0.514114 0.857722 0.000000
vn -0.595698 0.803209 0.000000
vn -0.671554 0.740956 0.000000
vn -0.671554 0.740956 0.000000
vn -0.740950 0.671560 0.000000
vn -0.740950 0.671560 0.000000
vn -0.803212 0.595693 0.000000
vn -0.803212 0.595693 0.000000
vn -0.857726 0.514107 0.000000
vn -0.857726 0.514107 0.000000
vn -0.903992 0.427550 0.000000
vn -0.941542 0.336895 0.000000
vn -0.903992 0.427550 0.000000
vn -0.941542 0.336895 0.000000
vn -0.970031 0.242980 0.000000
vn -0.989177 0.146729 0.000000
vn -0.970031 0.242980 0.000000
vn -0.989177 0.146729 0.000000
vn -0.998795 0.049068 0.000000
vn -0.998795 0.049068 0.000000
vn 1.000000 -0.000000 0.000000
vn 1.000000 -0.000000 0.000000
vn 1.000000 -0.000000 0.000000
vn 1.000000 0.000000 0.000000
vn 0.000000 1.000000 0.000000
vn 0.000000 1.000000 0.000000
vn 0.000000 1.000000 0.000000
vn 0.000000 1.000000 0.000000
vn 0.998796 0.049056 0.000000
vn 0.998796 0.049056 0.000000
vn 0.989173 0.146752 0.000000
vn 0.989173 0.146752 0.000000
vn 0.970033 0.242975 0.000000
vn 0.970033 0.242975 0.000000
vn 0.941542 0.336894 0.000000
vn 0.903998 0.427536 0.000000
vn 0.941542 0.336894 0.000000
vn 0.903998 0.427536 0.000000
vn 0.857719 0.514118 0.000000
vn 0.803213 0.595692 0.000000
vn 0.857719 0.514118 0.000000
vn 0.803213 0.595692 0.000000
vn 0.740955 0.671555 0.000000
vn 0.740955 0.671555 0.000000
vn 0.671555 0.740955 0.000000
vn 0.671555 0.740955 0.000000
vn 0.595692 0.803213 0.000000
vn 0.595692 0.803213 0.000000
vn 0.514118 0.857719 0.000000
vn 0.514118 0.857719 0.000000
vn 0.427536 0.903998 0.000000
vn 0.427536 0.903998 0.000000
vn 0.336894 0.941542 0.000000
vn 0.242975 0.970033 0.000000
vn 0.336894 0.941542 0.000000
vn 0.242975 0.970033 0.000000
vn 0.146752 0.989173 0.000000
vn 0.146752 0.989173 0.000000
vn 0.049056 0.998796 0.000000
vn 0.049056 0.998796 0.000000
vn 1.000000 0.000000 0.000000
vn 1.000000 -0.000000 0.000000
vn 1.000000 0.000000 0.000000
vn 1.000000 -0.000000 0.000000
vn 0.000000 -1.000000 0.000000
vn 0.000000 -1.000000 0.000000
vn -0.998757 -0.049846 -0.000000
vn -0.998757 -0.049846 0.000000
vn -0.988830 -0.149045 -0.000000
vn -0.988830 -0.149045 0.000000
vn -0.969078 -0.246754 0.000000
vn -0.969078 -0.246754 0.000000
vn -0.939694 -0.342017 -0.000000
vn -0.939694 -0.342017 0.000000
vn -0.900971 -0.433880 -0.000000
vn -0.900971 -0.433880 0.000000
vn -0.853283 -0.521448 0.000000
vn -0.853283 -0.521448 0.000000
vn -0.797130 -0.603807 -0.000000
vn -0.797130 -0.603807 0.000000
vn -0.733058 -0.680166 -0.000000
vn -0.733058 -0.680166 0.000000
vn -0.661701 -0.749768 -0.000000
vn -0.661701 -0.749768 0.000000
vn -0.583742 -0.811939 0.000000
vn -0.583742 -0.811939 -0.000000
vn -0.499974 -0.866041 0.000000
vn -0.499974 -0.866041 0.000000
vn -0.411320 -0.911491 0.000000
vn -0.318457 -0.947937 0.000000
vn -0.411320 -0.911491 -0.000000
vn -0.318457 -0.947937 0.000000
vn -0.222522 -0.974928 0.000000
vn -0.222522 -0.974928 -0.000000
vn -0.124339 -0.992240 0.000000
vn -0.024940 -0.999689 0.000000
vn -0.124339 -0.992240 -0.000000
vn -0.024940 -0.999689 0.000000
vn 0.074729 -0.997204 0.000000
vn 0.074729 -0.997204 0.000000
vn 0.173633 -0.984810 0.000000
vn 0.173633 -0.984810 0.000000
vn 0.270868 -0.962616 0.000000
vn 0.270868 -0.962616 0.000000
vn 0.365320 -0.930882 0.000000
vn 0.365320 -0.930882 0.000000
vn 0.456209 -0.889873 0.000000
vn 0.456209 -0.889873 0.000000
vn 0.542549 -0.840024 0.000000
vn 0.542549 -0.840024 0.000000
vn 0.623492 -0.781830 0.000000
vn 0.623492 -0.781830 0.000000
vn 0.698230 -0.715874 0.000000
vn 0.698230 -0.715874 0.000000
vn 0.766053 -0.642778 0.000000
vn 0.766053 -0.642778 0.000000
vn 0.826243 -0.563314 0.000000
vn 0.826243 -0.563314 0.000000
vn 0.878217 -0.478262 0.000000
vn 0.878217 -0.478262 0.000000
vn 0.921474 -0.388440 0.000000
vn 0.921474 -0.388440 0.000000
vn 0.955574 -0.294751 0.000000
vn 0.955574 -0.294751 0.000000
vn 0.980172 -0.198147 0.000000
vn 0.980172 -0.198147 0.000000
vn 0.995031 -0.099568 0.000000
vn 0.995031 -0.099568 0.000000
vn 1.000000 0.000000 0.000000
vn 1.000000 0.000000 0.000000
vn 0.995031 0.099568 -0.000000
vn 0.995031 0.099568 0.000000
vn 0.980172 0.198147 0.000000
vn 0.980172 0.198147 0.000000
vn 0.955574 0.294751 0.000000
vn 0.955574 0.294751 0.000000
vn 0.921474 0.388440 0.000000
vn 0.921474 0.388440 0.000000
vn 0.878217 0.478262 0.000000
vn 0.878217 0.478262 0.000000
vn 0.826243 0.563314 0.000000
vn 0.826243 0.563314 0.000000
vn 0.766053 0.642778 0.000000
vn 0.766053 0.642778 0.000000
vn 0.698230 0.715874 0.000000
vn 0.698230 0.715874 0.000000
vn 0.623492 0.781830 0.000000
vn 0.623492 0.781830 0.000000
vn 0.542549 0.840024 0.000000
vn 0.542549 0.840024 0.000000
vn 0.456209 0.889873 0.000000
vn 0.456209 0.889873 0.000000
vn 0.365320 0.930882 0.000000
vn 0.365320 0.930882 0.000000
vn 0.270868 0.962616 0.000000
vn 0.270868 0.962616 0.000000
vn 0.173633 0.984810 0.000000
vn 0.173633 0.984810 0.000000
vn 0.074729 0.997204 0.000000
vn 0.074729 0.997204 0.000000
vn -0.024940 0.999689 0.000000
vn -0.024940 0.999689 0.000000
vn -0.124339 0.992240 0.000000
vn -0.124339 0.992240 0.000000
vn -0.222522 0.974928 0.000000
vn -0.222522 0.974928 0.000000
vn -0.318457 0.947937 0.000000
vn -0.318457 0.947937 0.000000
vn -0.411320 0.911491 0.000000
vn -0.411320 0.911491 0.000000
vn -0.499974 0.866041 0.000000
vn -0.499974 0.866041 0.000000
vn -0.583742 0.811939 0.000000
vn -0.583742 0.811939 0.000000
vn -0.661701 0.749768 0.000000
vn -0.661701 0.749768 0.000000
vn -0.733058 0.680166 0.000000
vn -0.733058 0.680166 0.000000
vn -0.797130 0.603807 0.000000
vn -0.797130 0.603807 0.000000
vn -0.853283 0.521448 0.000000
vn -0.853283 0.521448 0.000000
vn -0.900971 0.433880 0.000000
vn -0.900971 0.433880 0.000000
vn -0.939694 0.342017 0.000000
vn -0.939694 0.342017 0.000000
vn -0.969078 0.246754 0.000000
vn -0.969078 0.246754 0.000000
vn -0.988830 0.149045 0.000000
vn -0.988830 0.149045 0.000000
vn -0.998757 0.049846 0.000000
vn -0.998757 0.049846 0.000000
vn -0.998757 -0.049834 -0.000000
vn -0.998757 -0.049834 0.000000
vn -0.988829 -0.149056 -0.000000
vn -0.988829 -0.149056 0.000000
vn -0.969082 -0.246738 0.000000
vn -0.969082 -0.246738 0.000000
vn -0.939700 -0.342000 -0.000000
vn -0.939700 -0.342000 0.000000
vn -0.900955 -0.433912 -0.000000
vn -0.900955 -0.433912 0.000000
vn -0.853302 -0.521417 0.000000
vn -0.853302 -0.521417 0.000000
vn -0.797122 -0.603818 -0.000000
vn -0.797122 -0.603818 0.000000
vn -0.733060 -0.680164 -0.000000
vn -0.733060 -0.680164 0.000000
vn -0.661686 -0.749781 -0.000000
vn -0.661686 -0.749781 0.000000
vn -0.583744 -0.811938 0.000000
vn -0.583744 -0.811938 -0.000000
vn -0.499984 -0.866035 0.000000
vn -0.499984 -0.866035 0.000000
vn -0.411315 -0.911493 0.000000
vn -0.318455 -0.947938 0.000000
vn -0.411315 -0.911493 -0.000000
vn -0.318455 -0.947938 0.000000
vn -0.222528 -0.974926 0.000000
vn -0.222528 -0.974926 -0.000000
vn -0.124339 -0.992240 0.000000
vn -0.024939 -0.999689 0.000000
vn -0.124339 -0.992240 -0.000000
vn -0.024939 -0.999689 0.000000
vn 0.074727 -0.997204 0.000000
vn 0.074727 -0.997204 0.000000
vn 0.173634 -0.984810 0.000000
vn 0.173634 -0.984810 0.000000
vn 0.270872 -0.962615 0.000000
vn 0.270872 -0.962615 0.000000
vn 0.365321 -0.930882 0.000000
vn 0.365321 -0.930882 0.000000
vn 0.456212 -0.889871 0.000000
vn 0.456212 -0.889871 0.000000
vn 0.542549 -0.840024 0.000000
vn 0.542549 -0.840024 0.000000
vn 0.623497 -0.781825 0.000000
vn 0.623497 -0.781825 0.000000
vn 0.698228 -0.715875 0.000000
vn 0.698228 -0.715875 0.000000
vn 0.766043 -0.642789 0.000000
vn 0.766043 -0.642789 0.000000
vn 0.826250 -0.563303 0.000000
vn 0.826250 -0.563303 0.000000
vn 0.878212 -0.478272 0.000000
vn 0.878212 -0.478272 0.000000
vn 0.921467 -0.388457 0.000000
vn 0.921467 -0.388457 0.000000
vn 0.955581 -0.294728 0.000000
vn 0.955581 -0.294728 0.000000
vn 0.980168 -0.198167 0.000000
vn 0.980168 -0.198167 0.000000
vn 0.995034 -0.099535 0.000000
vn 0.995034 -0.099535 0.000000
vn 1.000000 0.000000 0.000000
vn 1.000000 0.000000 0.000000
vn 0.995034 0.099535 -0.000000
vn 0.995034 0.099535 0.000000
vn 0.980168 0.198167 0.000000
vn 0.980168 0.198167 0.000000
vn 0.955581 0.294728 0.000000
vn 0.955581 0.294728 0.000000
vn 0.921467 0.388457 0.000000
vn 0.921467 0.388457 0.000000
vn 0.878212 0.478272 0.000000
vn 0.878212 0.478272 0.000000
vn 0.826250 0.563303 0.000000
vn 0.826250 0.563303 0.000000
vn 0.766043 0.642789 0.000000
vn 0.766043 0.642789 0.000000
vn 0.698228 0.715875 0.000000
vn 0.698228 0.715875 0.000000
vn 0.623497 0.781825 0.000000
vn 0.623497 0.781825 0.000000
vn 0.542549 0.840024 0.000000
vn 0.542549 0.840024 0.000000
vn 0.456212 0.889871 0.000000
vn 0.456212 0.889871 0.000000
vn 0.365321 0.930882 0.000000
vn 0.365321 0.930882 0.000000
vn 0.270872 0.962615 0.000000
vn 0.270872 0.962615 0.000000
vn 0.173634 0.984810 0.000000
vn 0.173634 0.984810 0.000000
vn 0.074727 0.997204 0.000000
vn 0.074727 0.997204 0.000000
vn -0.024939 0.999689 0.000000
vn -0.024939 0.999689 0.000000
vn -0.124339 0.992240 0.000000
vn -0.124339 0.992240 0.000000
vn -0.222528 0.974926 0.000000
vn -0.222528 0.974926 0.000000
vn -0.318455 0.947938 0.000000
vn -0.318455 0.947938 0.000000
vn -0.411315 0.911493 0.000000
vn -0.411315 0.911493 0.000000
vn -0.499984 0.866035 0.000000
vn -0.499984 0.866035 0.000000
vn -0.583744 0.811938 0.000000
vn -0.583744 0.811938 0.000000
vn -0.661686 0.749781 0.000000
vn -0.661686 0.749781 0.000000
vn -0.733060 0.680164 0.000000
vn -0.733060 0.680164 0.000000
vn -0.797122 0.603818 0.000000
vn -0.797122 0.603818 0.000000
vn -0.853302 0.521417 0.000000
vn -0.853302 0.521417 0.000000
vn -0.900955 0.433912 0.000000
vn -0.900955 0.433912 0.000000
vn -0.939700 0.342000 0.000000
vn -0.939700 0.342000 0.000000
vn -0.969082 0.246738 0.000000
vn -0.969082 0.246738 0.000000
vn -0.988829 0.149056 0.000000
vn -0.988829 0.149056 0.000000
vn -0.998757 0.049834 0.000000
vn -0.998757 0.049834 0.000000
vn 0.000000 -1.000000 0.000000
vn 0.000000 -1.000000 0.000000
vn 0.000000 0.000000 1.000000
vn 0.000000 0.000000 1.000000
vn 0.000000 0.000000 -1.000000
vn 0.000000 0.000000 -1.000000
vn 0.000000 -0.000000 -1.000000
vn 0.000000 0.000000 -1.000000
vn 0.000000 -0.000000 -1.000000
vn 0.000000 0.000000 -1.000000
vn 0.000000 -0.000000 -1.000000
vn 0.000000 0.000000 -1.000000
vn 0.000000 -0.000000 -1.000000
vn 0.000000 0.000000 -1.000000
vn 0.000000 -0.000000 -1.000000
vn 0.000000 0.000000 -1.000000
vn 0.000000 -0.000000 -1.000000
vn 0.000000 0.000000 -1.000000
vn 0.000000 -0.000000 -1.000000
vn 0.000000 0.000000 -1.000000
vn 0.000000 -0.000000 -1.000000
vn 0.000000 -0.000000 -1.000000
vn 0.000000 0.000000 -1.000000
vn 0.000000 0.000000 -1.000000
vn 0.000000 -0.000000 -1.000000
vn 0.000000 0.000000 -1.000000
vn 0.000000 -0.000000 -1.000000
vn 0.000000 0.000000 -1.000000
vn 0.000000 -0.000000 -1.000000
vn 0.000000 0.000000 -1.000000
vn 0.000000 -0.000000 -1.000000
vn 0.000000 0.000000 -1.000000
vn 0.000000 -0.000000 -1.000000
vn 0.000000 0.000000 -1.000000
vn 0.000000 0.000000 -1.000000
vn 0.000000 0.000000 -1.000000
vn 0.000000 0.000000 -1.000000
vn 0.000000 -0.000000 -1.000000
vn 0.000000 0.000000 -1.000000
vn 0.000000 0.000000 -1.000000
vn 0.000000 0.000000 -1.000000
vn 0.000000 0.000000 -1.000000
vn 0.000000 -0.000000 -1.000000
vn 0.000000 0.000000 -1.000000
vn 0.000000 0.000000 -1.000000
vn 0.000000 0.000000 -1.000000
vn 0.000000 -0.000000 -1.000000
vn 0.000000 -0.000000 -1.000000
vn 0.000000 -0.000000 -1.000000
vn 0.000000 -0.000000 -1.000000
vn 0.000000 -0.000000 -1.000000
vn 0.000000 -0.000000 -1.000000
vn 0.000000 -0.000000 -1.000000
vn 0.000000 -0.000000 -1.000000
vn 0.000000 0.000000 -1.000000
vn 0.000000 -0.000000 -1.000000
vn 0.000000 -0.000000 -1.000000
vn 0.000000 -0.000000 -1.000000
vn 0.000000 -0.000000 -1.000000
vn 0.000000 -0.000000 -1.000000
vn 0.000000 -0.000000 -1.000000
vn 0.000000 0.000000 -1.000000
vn 0.000000 -0.000000 -1.000000
vn 0.000000 -0.000000 -1.000000
vn 0.000000 0.000000 -1.000000
vn 0.000000 0.000000 -1.000000
vn 0.000000 0.000000 -1.000000
vn 0.000000 0.000000 -1.000000
vn 0.000000 0.000000 -1.000000
vn 0.000000 0.000000 -1.000000
vn 0.000000 0.000000 -1.000000
vn 0.000000 0.000000 -1.000000
vn 0.000000 0.000000 -1.000000
vn 0.000000 0.000000 -1.000000
vn 0.000000 0.000000 -1.000000
vn 0.000000 0.000000 -1.000000
vn 0.000000 0.000000 -1.000000
vn 0.000000 0.000000 -1.000000
vn 0.000000 0.000000 -1.000000
vn 0.000000 -0.000000 -1.000000
vn 0.000000 0.000000 -1.000000
vn 0.000000 -0.000000 -1.000000
vn 0.000000 0.000000 -1.000000
vn 0.000000 -0.000000 -1.000000
vn 0.000000 -0.000000 -1.000000
vn 0.000000 -0.000000 -1.000000
vn 0.000000 -0.000000 -1.000000
vn 0.000000 -0.000000 -1.000000
vn 0.000000 -0.000000 -1.000000
vn 0.000000 -0.000000 -1.000000
vn 0.000000 -0.000000 -1.000000
vn 0.000000 -0.000000 -1.000000
vn 0.000000 -0.000000 -1.000000
vn 0.000000 -0.000000 -1.000000
vn 0.000000 0.000000 -1.000000
vn 0.000000 -0.000000 -1.000000
vn 0.000000 -0.000000 -1.000000
vn 0.000000 0.000000 -1.000000
vn 0.000000 -0.000000 -1.000000
vn 0.000000 0.000000 -1.000000
vn 0.000000 0.000000 -1.000000
vn 0.000000 -0.000000 -1.000000
vn 0.000000 0.000000 -1.000000
vn 0.000000 0.000000 -1.000000
vn 0.000000 -0.000000 -1.000000
vn 0.000000 0.000000 -1.000000
vn 0.000000 0.000000 -1.000000
vn 0.000000 -0.000000 -1.000000
vn 0.000000 0.000000 -1.000000
vn 0.000000 0.000000 -1.000000
vn 0.000000 -0.000000 -1.000000
vn 0.000000 0.000000 -1.000000
vn 0.000000 0.000000 -1.000000
vn 0.000000 -0.000000 -1.000000
vn 0.000000 0.000000 -1.000000
vn 0.000000 0.000000 -1.000000
vn 0.000000 -0.000000 -1.000000
vn 0.000000 0.000000 -1.000000
vn 0.000000 0.000000 -1.000000
vn 0.000000 -0.000000 -1.000000
vn 0.000000 0.000000 -1.000000
vn 0.000000 0.000000 -1.000000
vn 0.000000 0.000000 -1.000000
vn 0.000000 0.000000 -1.000000
vn 0.000000 0.000000 -1.000000
vn 0.000000 0.000000 -1.000000
vn 0.000000 0.000000 -1.000000
vn 0.000000 0.000000 -1.000000
vn 0.000000 0.000000 -1.000000
vn 0.000000 0.000000 -1.000000
vn 0.000000 0.000000 -1.000000
vn 0.000000 0.000000 -1.000000
vn 0.000000 0.000000 -1.000000
vn 0.000000 0.000000 -1.000000
vn 0.000000 0.000000 -1.000000
vn 0.000000 0.000000 -1.000000
vn 0.000000 0.000000 -1.000000
vn 0.000000 0.000000 -1.000000
vn 0.000000 0.000000 -1.000000
vn 0.000000 0.000000 -1.000000
vn 0.000000 0.000000 -1.000000
vn 0.000000 0.000000 -1.000000
vn 0.000000 0.000000 -1.000000
vn 0.000000 0.000000 -1.000000
vn 0.000000 0.000000 -1.000000
vn 0.000000 0.000000 -1.000000
vn 0.000000 0.000000 -1.000000
vn 0.000000 0.000000 -1.000000
vn 0.000000 0.000000 -1.000000
vn 0.000000 0.000000 -1.000000
vn 0.000000 0.000000 -1.000000
vn 0.000000 0.000000 -1.000000
vn 0.000000 0.000000 -1.000000
vn 0.000000 -0.000000 -1.000000
vn 0.000000 0.000000 -1.000000
vn 0.000000 0.000000 -1.000000
vn 0.000000 -0.000000 -1.000000
vn 0.000000 -0.000000 -1.000000
vn 0.000000 0.000000 -1.000000
vn 0.000000 0.000000 -1.000000
vn 0.000000 0.000000 -1.000000
vn 0.000000 0.000000 -1.000000
vn 0.000000 -0.000000 -1.000000
vn 0.000000 0.000000 -1.000000
vn 0.000000 -0.000000 -1.000000
vn 0.000000 0.000000 -1.000000
vn 0.000000 -0.000000 -1.000000
vn 0.000000 0.000000 -1.000000
vn 0.000000 0.000000 -1.000000
vn 0.000000 -0.000000 -1.000000
vn 0.000000 0.000000 -1.000000
vn 0.000000 -0.000000 -1.000000
f 1//1 2//1 3//1
f 1//2 4//2 2//2
f 5//3 2//3 4//3
f 6//4 1//4 3//4
f 7//5 2//5 5//5
f 8//6 6//6 3//6
f 9//7 2//7 7//7
f 10//8 8//8 3//8
f 11//9 2//9 9//9
f 12//10 10//10 3//10
f 13//11 2//11 11//11
f 14//12 12//12 3//12
f 15//13 2//13 13//13
f 16//14 14//14 3//14
f 17//15 2//15 15//15
f 18//16 16//16 3//16
f 19//17 2//17 17//17
f 20//18 18//18 3//18
f 21//19 2//19 19//19
f 22//20 20//20 3//20
f 23//21 2//21 21//21
f 24//22 22//22 3//22
f 25//23 2//23 23//23
f 26//24 24//24 3//24
f 27//25 2//25 25//25
f 28//26 26//26 3//26
f 29//27 2//27 27//27
f 29//28 30//28 2//28
f 31//29 28//29 3//29
f 32//30 33//30 34//30
f 32//31 30//31 29//31
f 32//32 34//32 35//32
f 32//33 35//33 30//33
f 36//34 31//34 3//34
f 37//35 33//35 32//35
f 37//36 38//36 39//36
f 37//37 39//37 40//37
f 37//38 40//38 33//38
f 41//39 36//39 3//39
f 42//40 38//40 37//40
f 43//41 42//41 37//41
f 43//42 37//42 44//42
f 45//43 43//43 44//43
f 46//44 45//44 44//44
f 47//45 46//45 44//45
f 48//46 44//46 49//46
f 48//47 47//47 44//47
f 50//48 48//48 49//48
f 51//49 50//49 49//49
f 52//50 51//50 49//50
f 52//51 53//51 54//51
f 52//52 55//52 53//52
f 52//53 56//53 55//53
f 52//54 57//54 56//54
f 52//55 58//55 57//55
f 52//56 59//56 58//56
f 52//57 60//57 59//57
f 52//58 61//58 60//58
f 52//59 62//59 61//59
f 52//60 63//60 62//60
f 52//61 64//61 63//61
f 52//62 65//62 64//62
f 52//63 66//63 65//63
f 52//64 67//64 66//64
f 52//65 49//65 67//65
f 68//66 3//66 69//66
f 70//67 68//67 69//67
f 71//68 72//68 73//68
f 71//69 74//69 72//69
f 71//70 41//70 3//70
f 71//71 3//71 68//71
f 71//72 75//72 41//72
f 71//73 76//73 75//73
f 71//74 77//74 76//74
f 71//75 78//75 77//75
f 71//76 73//76 78//76
f 79//77 80//77 71//77
f 81//78 71//78 80//78
f 82//79 79//79 71//79
f 83//80 71//80 81//80
f 84//81 82//81 71//81
f 85//82 71//82 83//82
f 86//83 84//83 71//83
f 87//84 71//84 85//84
f 88//85 86//85 71//85
f 89//86 71//86 87//86
f 90//87 88//87 71//87
f 91//88 71//88 89//88
f 92//89 90//89 71//89
f 93//90 94//90 74//90
f 93//91 74//91 71//91
f 93//92 71//92 91//92
f 95//93 71//93 96//93
f 95//94 92//94 71//94
f 97//95 94//95 93//95
f 97//96 98//96 94//96
f 99//97 95//97 96//97
f 100//98 98//98 97//98
f 100//99 101//99 98//99
f 102//100 99//100 96//100
f 103//101 104//101 101//101
f 103//102 101//102 100//102
f 105//103 102//103 96//103
f 106//104 107//104 104//104
f 106//105 104//105 103//105
f 108//106 105//106 96//106
f 109//107 110//107 107//107
f 109//108 107//108 106//108
f 111//109 108//109 96//109
f 112//110 113//110 110//110
f 112//111 110//111 109//111
f 114//112 111//112 96//112
f 115//113 54//113 113//113
f 115//114 113//114 112//114
f 116//115 114//115 96//115
f 117//116 54//116 115//116
f 117//117 52//117 54//117
f 118//118 116//118 96//118
f 119//119 118//119 96//119
f 120//120 121//120 122//120
f 120//121 123//121 121//121
f 120//122 124//122 123//122
f 120//123 125//123 124//123
f 120//124 126//124 125//124
f 120//125 127//125 126//125
f 120//126 128//126 119//126
f 120//127 129//127 128//127
f 120//128 130//128 129//128
f 120//129 131//129 130//129
f 120//130 132//130 131//130
f 120//131 133//131 132//131
f 120//132 122//132 133//132
f 120//133 119//133 96//133
f 134//134 135//134 136//134
f 134//135 137//135 135//135
f 134//136 138//136 137//136
f 134//137 139//137 138//137
f 134//138 140//138 139//138
f 134//139 141//139 140//139
f 134//140 142//140 141//140
f 134//141 143//141 142//141
f 134//142 144//142 143//142
f 134//143 145//143 144//143
f 134//144 146//144 145//144
f 134//145 147//145 146//145
f 134//146 148//146 147//146
f 134//147 117//147 148//147
f 134//148 52//148 117//148
f 149//149 127//149 120//149
f 150//150 134//150 136//150
f 151//151 127//151 149//151
f 152//152 136//152 153//152
f 152//153 150//153 136//153
f 154//154 152//154 153//154
f 155//155 156//155 127//155
f 155//156 127//156 151//156
f 157//157 154//157 153//157
f 158//158 156//158 155//158
f 159//159 153//159 160//159
f 159//160 157//160 153//160
f 161//161 156//161 158//161
f 162//162 159//162 160//162
f 163//163 160//163 156//163
f 163//164 156//164 161//164
f 164//165 162//165 160//165
f 165//166 160//166 163//166
f 166//167 164//167 160//167
f 166//168 160//168 165//168
f 167//169 168//169 2//169
f 168//170 3//170 2//170
f 169//171 170//171 168//171
f 167//172 169//172 168//172
f 171//173 69//173 168//173
f 168//174 69//174 3//174
f 51//175 52//175 172//175
f 51//176 172//176 173//176
f 50//177 173//177 174//177
f 50//178 51//178 173//178
f 48//179 174//179 175//179
f 48//180 50//180 174//180
f 47//181 175//181 176//181
f 47//182 48//182 175//182
f 46//183 176//183 177//183
f 46//184 47//184 176//184
f 45//185 177//185 178//185
f 45//186 178//186 179//186
f 45//187 46//187 177//187
f 43//188 45//188 179//188
f 42//189 179//189 180//189
f 42//190 43//190 179//190
f 38//191 180//191 181//191
f 38//192 42//192 180//192
f 39//193 181//193 182//193
f 39//194 38//194 181//194
f 40//195 182//195 183//195
f 40//196 39//196 182//196
f 33//197 183//197 184//197
f 33//198 184//198 185//198
f 33//199 40//199 183//199
f 34//200 33//200 185//200
f 35//201 185//201 186//201
f 35//202 186//202 187//202
f 35//203 34//203 185//203
f 30//204 35//204 187//204
f 2//205 187//205 167//205
f 2//206 30//206 187//206
f 171//207 188//207 70//207
f 69//208 171//208 70//208
f 189//209 190//209 171//209
f 190//210 188//210 171//210
f 191//211 172//211 52//211
f 134//212 191//212 52//212
f 70//213 188//213 192//213
f 70//214 192//214 68//214
f 149//215 120//215 193//215
f 149//216 193//216 194//216
f 151//217 194//217 195//217
f 151//218 149//218 194//218
f 155//219 195//219 196//219
f 155//220 151//220 195//220
f 158//221 196//221 197//221
f 158//222 197//222 198//222
f 158//223 155//223 196//223
f 161//224 158//224 198//224
f 163//225 198//225 199//225
f 163//226 199//226 200//226
f 163//227 161//227 198//227
f 165//228 163//228 200//228
f 166//229 200//229 201//229
f 166//230 165//230 200//230
f 164//231 201//231 202//231
f 164//232 166//232 201//232
f 162//233 202//233 203//233
f 162//234 164//234 202//234
f 159//235 203//235 204//235
f 159//236 162//236 203//236
f 157//237 204//237 205//237
f 157//238 159//238 204//238
f 154//239 205//239 206//239
f 154//240 206//240 207//240
f 154//241 157//241 205//241
f 152//242 154//242 207//242
f 150//243 207//243 208//243
f 150//244 152//244 207//244
f 134//245 208//245 191//245
f 134//246 150//246 208//246
f 192//247 209//247 71//247
f 68//248 192//248 71//248
f 96//249 210//249 193//249
f 96//250 193//250 120//250
f 210//251 96//251 209//251
f 209//252 96//252 71//252
f 94//253 98//253 211//253
f 211//254 98//254 212//254
f 98//255 101//255 212//255
f 212//256 101//256 213//256
f 213//257 101//257 214//257
f 101//258 104//258 214//258
f 104//259 107//259 214//259
f 214//260 107//260 215//260
f 107//261 110//261 215//261
f 215//262 110//262 216//262
f 216//263 110//263 217//263
f 110//264 113//264 217//264
f 113//265 54//265 217//265
f 217//266 54//266 218//266
f 54//267 53//267 218//267
f 218//268 53//268 219//268
f 53//269 55//269 219//269
f 219//270 55//270 220//270
f 220//271 56//271 221//271
f 55//272 56//272 220//272
f 221//273 56//273 222//273
f 56//274 57//274 222//274
f 222//275 58//275 223//275
f 223//276 58//276 224//276
f 57//277 58//277 222//277
f 58//278 59//278 224//278
f 224//279 60//279 225//279
f 59//280 60//280 224//280
f 225//281 61//281 226//281
f 226//282 61//282 227//282
f 60//283 61//283 225//283
f 61//284 62//284 227//284
f 62//285 63//285 227//285
f 227//286 63//286 228//286
f 228//287 63//287 229//287
f 63//288 64//288 229//288
f 229//289 64//289 230//289
f 64//290 65//290 230//290
f 65//291 66//291 230//291
f 230//292 66//292 231//292
f 231//293 66//293 232//293
f 66//294 67//294 232//294
f 232//295 67//295 233//295
f 67//296 49//296 233//296
f 49//297 44//297 233//297
f 233//298 44//298 234//298
f 234//299 44//299 235//299
f 44//300 37//300 235//300
f 37//301 32//301 235//301
f 235//302 32//302 236//302
f 32//303 29//303 236//303
f 236//304 29//304 237//304
f 29//305 27//305 237//305
f 237//306 27//306 238//306
f 238//307 27//307 239//307
f 27//308 25//308 239//308
f 25//309 23//309 239//309
f 239//310 23//310 240//310
f 23//311 21//311 240//311
f 240//312 21//312 241//312
f 21//313 19//313 241//313
f 241//314 19//314 242//314
f 19//315 17//315 242//315
f 242//316 17//316 243//316
f 243//317 17//317 244//317
f 17//318 15//318 244//318
f 15//319 13//319 244//319
f 244//320 13//320 245//320
f 13//321 11//321 245//321
f 245//322 11//322 246//322
f 11//323 9//323 246//323
f 246//324 9//324 247//324
f 247//325 7//325 248//325
f 9//326 7//326 247//326
f 248//327 5//327 249//327
f 7//328 5//328 248//328
f 249//329 4//329 250//329
f 5//330 4//330 249//330
f 250//331 1//331 251//331
f 4//332 1//332 250//332
f 251//333 6//333 252//333
f 1//334 6//334 251//334
f 252//335 8//335 253//335
f 6//336 8//336 252//336
f 8//337 10//337 253//337
f 253//338 10//338 254//338
f 10//339 12//339 254//339
f 254//340 12//340 255//340
f 255//341 14//341 256//341
f 12//342 14//342 255//342
f 256//343 16//343 257//343
f 14//344 16//344 256//344
f 257//345 18//345 258//345
f 16//346 18//346 257//346
f 258//347 20//347 259//347
f 18//348 20//348 258//348
f 259//349 22//349 260//349
f 20//350 22//350 259//350
f 260//351 24//351 261//351
f 22//352 24//352 260//352
f 261//353 26//353 262//353
f 24//354 26//354 261//354
f 262//355 28//355 263//355
f 26//356 28//356 262//356
f 263//357 31//357 264//357
f 28//358 31//358 263//358
f 264//359 36//359 265//359
f 31//360 36//360 264//360
f 265//361 41//361 266//361
f 36//362 41//362 265//362
f 266//363 75//363 267//363
f 41//364 75//364 266//364
f 267//365 76//365 268//365
f 75//366 76//366 267//366
f 268//367 77//367 269//367
f 76//368 77//368 268//368
f 269//369 78//369 270//369
f 77//370 78//370 269//370
f 270//371 73//371 271//371
f 78//372 73//372 270//372
f 271//373 72//373 272//373
f 73//374 72//374 271//374
f 272//375 74//375 273//375
f 72//376 74//376 272//376
f 74//377 94//377 273//377
f 273//378 94//378 211//378
f 122//379 121//379 274//379
f 274//380 121//380 275//380
f 121//381 123//381 275//381
f 275//382 123//382 276//382
f 276//383 123//383 277//383
f 123//384 124//384 277//384
f 124//385 125//385 277//385
f 277//386 125//386 278//386
f 125//387 126//387 278//387
f 278//388 126//388 279//388
f 279//389 126//389 280//389
f 126//390 127//390 280//390
f 127//391 156//391 280//391
f 280//392 156//392 281//392
f 156//393 160//393 281//393
f 281//394 160//394 282//394
f 160//395 153//395 282//395
f 282//396 153//396 283//396
f 283//397 136//397 284//397
f 153//398 136//398 283//398
f 284//399 136//399 285//399
f 136//400 135//400 285//400
f 285//401 137//401 286//401
f 286//402 137//402 287//402
f 135//403 137//403 285//403
f 137//404 138//404 287//404
f 287//405 139//405 288//405
f 138//406 139//406 287//406
f 288//407 140//407 289//407
f 289//408 140//408 290//408
f 139//409 140//409 288//409
f 140//410 141//410 290//410
f 141//411 142//411 290//411
f 290//412 142//412 291//412
f 291//413 142//413 292//413
f 142//414 143//414 292//414
f 292//415 143//415 293//415
f 143//416 144//416 293//416
f 144//417 145//417 293//417
f 293//418 145//418 294//418
f 294//419 145//419 295//419
f 145//420 146//420 295//420
f 295//421 146//421 296//421
f 146//422 147//422 296//422
f 147//423 148//423 296//423
f 296//424 148//424 297//424
f 297//425 148//425 298//425
f 148//426 117//426 298//426
f 117//427 115//427 298//427
f 298//428 115//428 299//428
f 115//429 112//429 299//429
f 299//430 112//430 300//430
f 112//431 109//431 300//431
f 300//432 109//432 301//432
f 301//433 109//433 302//433
f 109//434 106//434 302//434
f 106//435 103//435 302//435
f 302//436 103//436 303//436
f 103//437 100//437 303//437
f 303//438 100//438 304//438
f 100//439 97//439 304//439
f 304//440 97//440 305//440
f 97//441 93//441 305//441
f 305//442 93//442 306//442
f 306//443 93//443 307//443
f 93//444 91//444 307//444
f 91//445 89//445 307//445
f 307//446 89//446 308//446
f 89//447 87//447 308//447
f 308//448 87//448 309//448
f 87//449 85//449 309//449
f 309//450 85//450 310//450
f 310//451 83//451 311//451
f 85//452 83//452 310//452
f 311//453 81//453 312//453
f 83//454 81//454 311//454
f 312//455 80//455 313//455
f 81//456 80//456 312//456
f 313//457 79//457 314//457
f 80//458 79//458 313//458
f 314//459 82//459 315//459
f 79//460 82//460 314//460
f 315//461 84//461 316//461
f 82//462 84//462 315//462
f 84//463 86//463 316//463
f 316//464 86//464 317//464
f 86//465 88//465 317//465
f 317//466 88//466 318//466
f 318//467 90//467 319//467
f 88//468 90//468 318//468
f 319//469 92//469 320//469
f 90//470 92//470 319//470
f 320//471 95//471 321//471
f 92//472 95//472 320//472
f 321//473 99//473 322//473
f 95//474 99//474 321//474
f 322//475 102//475 323//475
f 99//476 102//476 322//476
f 323//477 105//477 324//477
f 102//478 105//478 323//478
f 324//479 108//479 325//479
f 105//480 108//480 324//480
f 325//481 111//481 326//481
f 108//482 111//482 325//482
f 326//483 114//483 327//483
f 111//484 114//484 326//484
f 327//485 116//485 328//485
f 114//486 116//486 327//486
f 328//487 118//487 329//487
f 116//488 118//488 328//488
f 329//489 119//489 330//489
f 118//490 119//490 329//490
f 330//491 128//491 331//491
f 119//492 128//492 330//492
f 331//493 129//493 332//493
f 128//494 129//494 331//494
f 332//495 130//495 333//495
f 129//496 130//496 332//496
f 333//497 131//497 334//497
f 130//498 131//498 333//498
f 334//499 132//499 335//499
f 131//500 132//500 334//500
f 335//501 133//501 336//501
f 132//502 133//502 335//502
f 133//503 122//503 336//503
f 336//504 122//504 274//504
f 190//505 189//505 169//505
f 169//506 189//506 170//506
f 171//507 168//507 170//507
f 171//508 170//508 189//508
f 192//509 188//509 190//509
f 330//510 193//510 210//510
f 330//511 210//511 329//511
f 328//512 329//512 210//512
f 331//513 193//513 330//513
f 327//514 328//514 210//514
f 332//515 193//515 331//515
f 326//516 327//516 210//516
f 333//517 193//517 332//517
f 325//518 326//518 210//518
f 334//519 193//519 333//519
f 324//520 325//520 210//520
f 335//521 193//521 334//521
f 323//522 324//522 210//522
f 336//523 193//523 335//523
f 322//524 323//524 210//524
f 274//525 193//525 336//525
f 321//526 210//526 209//526
f 321//527 322//527 210//527
f 275//528 193//528 274//528
f 320//529 321//529 209//529
f 276//530 193//530 275//530
f 319//531 320//531 209//531
f 277//532 193//532 276//532
f 318//533 319//533 209//533
f 278//534 193//534 277//534
f 317//535 318//535 209//535
f 279//536 193//536 278//536
f 316//537 317//537 209//537
f 280//538 194//538 193//538
f 280//539 195//539 194//539
f 280//540 196//540 195//540
f 280//541 193//541 279//541
f 315//542 316//542 209//542
f 281//543 197//543 196//543
f 281//544 198//544 197//544
f 281//545 199//545 198//545
f 281//546 196//546 280//546
f 314//547 315//547 209//547
f 282//548 200//548 199//548
f 282//549 201//549 200//549
f 282//550 199//550 281//550
f 313//551 314//551 209//551
f 312//552 313//552 209//552
f 202//553 201//553 282//553
f 311//554 312//554 209//554
f 310//555 311//555 209//555
f 203//556 202//556 282//556
f 309//557 310//557 209//557
f 308//558 309//558 209//558
f 204//559 282//559 283//559
f 204//560 203//560 282//560
f 307//561 308//561 209//561
f 306//562 307//562 209//562
f 205//563 204//563 283//563
f 206//564 205//564 283//564
f 207//565 206//565 283//565
f 207//566 283//566 284//566
f 208//567 207//567 284//567
f 191//568 208//568 284//568
f 191//569 284//569 285//569
f 191//570 285//570 286//570
f 191//571 286//571 287//571
f 191//572 287//572 288//572
f 191//573 288//573 289//573
f 191//574 289//574 290//574
f 191//575 290//575 291//575
f 191//576 291//576 292//576
f 191//577 292//577 293//577
f 191//578 293//578 294//578
f 191//579 294//579 295//579
f 191//580 295//580 296//580
f 191//581 296//581 297//581
f 191//582 297//582 298//582
f 169//583 192//583 190//583
f 267//584 209//584 266//584
f 265//585 209//585 192//585
f 265//586 192//586 169//586
f 265//587 266//587 209//587
f 268//588 209//588 267//588
f 264//589 265//589 169//589
f 269//590 209//590 268//590
f 263//591 264//591 169//591
f 270//592 209//592 269//592
f 262//593 263//593 169//593
f 271//594 209//594 270//594
f 261//595 262//595 169//595
f 272//596 209//596 271//596
f 260//597 261//597 169//597
f 273//598 209//598 272//598
f 273//599 306//599 209//599
f 259//600 260//600 169//600
f 211//601 306//601 273//601
f 211//602 305//602 306//602
f 258//603 259//603 169//603
f 212//604 304//604 305//604
f 212//605 305//605 211//605
f 257//606 258//606 169//606
f 213//607 303//607 304//607
f 213//608 304//608 212//608
f 256//609 257//609 169//609
f 214//610 303//610 213//610
f 214//611 302//611 303//611
f 255//612 256//612 169//612
f 215//613 301//613 302//613
f 215//614 302//614 214//614
f 254//615 255//615 169//615
f 216//616 300//616 301//616
f 216//617 301//617 215//617
f 253//618 254//618 169//618
f 217//619 300//619 216//619
f 217//620 299//620 300//620
f 252//621 253//621 169//621
f 218//622 298//622 299//622
f 218//623 299//623 217//623
f 251//624 252//624 169//624
f 172//625 218//625 219//625
f 172//626 219//626 220//626
f 172//627 220//627 221//627
f 172//628 221//628 222//628
f 172//629 222//629 223//629
f 172//630 223//630 224//630
f 172//631 224//631 225//631
f 172//632 225//632 226//632
f 172//633 226//633 227//633
f 172//634 227//634 228//634
f 172//635 228//635 229//635
f 172//636 229//636 230//636
f 172//637 230//637 231//637
f 172//638 231//638 232//638
f 172//639 232//639 233//639
f 172//640 191//640 298//640
f 172//641 298//641 218//641
f 167//642 237//642 238//642
f 167//643 238//643 239//643
f 167//644 239//644 240//644
f 167//645 240//645 241//645
f 167//646 241//646 242//646
f 167//647 242//647 243//647
f 167//648 243//648 244//648
f 167//649 244//649 245//649
f 167//650 245//650 246//650
f 167//651 246//651 247//651
f 167//652 247//652 248//652
f 167//653 248//653 249//653
f 167//654 249//654 250//654
f 167//655 250//655 251//655
f 167//656 251//656 169//656
f 187//657 236//657 237//657
f 187//658 237//658 167//658
f 173//659 172//659 233//659
f 174//660 173//660 233//660
f 186//661 236//661 187//661
f 185//662 236//662 186//662
f 175//663 233//663 234//663
f 175//664 174//664 233//664
f 176//665 175//665 234//665
f 184//666 235//666 236//666
f 184//667 236//667 185//667
f 177//668 176//668 234//668
f 183//669 235//669 184//669
f 178//670 177//670 234//670
f 182//671 235//671 183//671
f 179//672 234//672 235//672
f 179//673 178//673 234//673
f 181//674 235//674 182//674
f 180//675 179//675 235//675
f 180//676 235//676 181//676
