# Created by FreeCAD <https://www.freecad.org>
v 0.000000 0.000000 3.000000
v 0.000000 2.400000 3.000000
v 0.014446 2.400000 2.705949
v 0.014446 0.000000 2.705949
v 0.057644 0.000000 2.414729
v 0.057644 2.400000 2.414729
v 0.129179 0.000000 2.129146
v 0.129179 2.400000 2.129146
v 0.228361 0.000000 1.851950
v 0.228361 2.400000 1.851950
v 0.354236 2.400000 1.585810
v 0.354236 0.000000 1.585810
v 0.505591 0.000000 1.333289
v 0.505591 2.400000 1.333289
v 0.680969 0.000000 1.096820
v 0.680969 2.400000 1.096820
v 0.878680 2.400000 0.878680
v 0.878680 0.000000 0.878680
v 1.096820 2.400000 0.680969
v 1.096820 0.000000 0.680969
v 1.333289 2.400000 0.505591
v 1.333289 0.000000 0.505591
v 1.585810 0.000000 0.354236
v 1.585810 2.400000 0.354236
v 1.851950 2.400000 0.228361
v 1.851950 0.000000 0.228361
v 2.129146 0.000000 0.129179
v 2.129146 2.400000 0.129179
v 2.414729 0.000000 0.057644
v 2.414729 2.400000 0.057644
v 2.705949 0.000000 0.014446
v 2.705949 2.400000 0.014446
v 3.000000 0.000000 0.000000
v 3.000000 2.400000 0.000000
v 107.187004 2.400000 3.783026
v 109.666710 2.400000 0.505591
v 109.414192 2.400000 0.354236
v 109.903183 2.400000 0.680969
v 110.121323 2.400000 0.878680
v 110.319031 2.400000 1.096820
v 110.494408 2.400000 1.333289
v 107.302277 2.400000 3.907261
v 110.645767 2.400000 1.585810
v 110.771637 2.400000 1.851950
v 110.870819 2.400000 2.129146
v 107.059929 2.400000 3.670887
v 108.870857 2.400000 0.129179
v 108.585274 2.400000 0.057644
v 109.148048 2.400000 0.228361
v 107.404610 2.400000 4.042356
v 110.942352 2.400000 2.414729
v 110.985558 2.400000 2.705949
v 111.000000 2.400000 3.000000
v 106.922325 2.400000 3.571956
v 108.294052 2.400000 0.014446
v 108.000000 2.400000 0.000000
v 107.492973 2.400000 4.186968
v 106.775558 2.400000 3.487218
v 107.566513 2.400000 4.339661
v 106.621078 2.400000 3.417515
v 107.624474 2.400000 4.498916
v 106.460426 2.400000 3.363539
v 107.666290 2.400000 4.663152
v 106.295204 2.400000 3.325827
v 107.691551 2.400000 4.830735
v 106.127045 2.400000 3.304754
v 107.699997 2.400000 5.000000
v 105.957619 2.400000 3.300528
v 107.691551 2.400000 5.169265
v 105.788612 2.400000 3.313193
v 107.666290 2.400000 5.336848
v 105.621712 2.400000 3.342623
v 107.624474 2.400000 5.501084
v 101.300003 2.400000 0.000000
v 105.150002 2.400000 3.527757
v 105.300812 2.400000 3.450440
v 105.458572 2.400000 3.388524
v 111.000000 2.400000 10.000000
v 107.566513 2.400000 5.660339
v 107.492973 2.400000 5.813032
v 107.404610 2.400000 5.957644
v 107.302277 2.400000 6.092739
v 107.187004 2.400000 6.216974
v 107.059929 2.400000 6.329113
v 106.922325 2.400000 6.428044
v 106.775558 2.400000 6.512782
v 106.621078 2.400000 6.582485
v 106.460426 2.400000 6.636461
v 106.295204 2.400000 6.674173
v 106.127045 2.400000 6.695246
v 105.957619 2.400000 6.699471
v 105.788612 2.400000 6.686807
v 105.621712 2.400000 6.657377
v 101.300003 2.400000 2.400000
v 104.352570 2.400000 5.419487
v 104.318985 2.400000 5.253372
v 104.302116 2.400000 5.084738
v 104.302116 2.400000 4.915262
v 104.318985 2.400000 4.746628
v 104.352570 2.400000 4.580513
v 104.402519 2.400000 4.418566
v 104.468353 2.400000 4.262398
v 104.549408 2.400000 4.113560
v 104.644875 2.400000 3.973532
v 104.753815 2.400000 3.843706
v 104.875137 2.400000 3.725372
v 105.007637 2.400000 3.619705
v 105.458572 2.400000 6.611476
v 104.402519 2.400000 5.581434
v 105.300812 2.400000 6.549560
v 104.468353 2.400000 5.737602
v 105.150002 2.400000 6.472243
v 104.549408 2.400000 5.886440
v 104.644875 2.400000 6.026467
v 104.753815 2.400000 6.156294
v 6.302276 2.400000 3.907261
v 9.700000 2.400000 2.400000
v 6.187003 2.400000 3.783026
v 6.059933 2.400000 3.670887
v 6.404606 2.400000 4.042356
v 5.922328 2.400000 3.571956
v 9.700000 2.400000 0.000000
v 6.492977 2.400000 4.186968
v 5.775558 2.400000 3.487218
v 6.566510 2.400000 4.339661
v 5.621080 2.400000 3.417515
v 6.624474 2.400000 4.498916
v 5.460429 2.400000 3.363539
v 6.666293 2.400000 4.663152
v 5.295202 2.400000 3.325827
v 6.691552 2.400000 4.830735
v 5.127041 2.400000 3.304754
v 6.700000 2.400000 5.000000
v 4.957618 2.400000 3.300528
v 6.691552 2.400000 5.169265
v 4.788616 2.400000 3.313193
v 6.666293 2.400000 5.336848
v 4.621715 2.400000 3.342623
v 6.624474 2.400000 5.501084
v 4.458573 2.400000 3.388524
v 6.566510 2.400000 5.660339
v 4.300812 2.400000 3.450440
v 6.492977 2.400000 5.813032
v 4.150000 2.400000 3.527757
v 6.404606 2.400000 5.957644
v 4.007636 2.400000 3.619705
v 6.302276 2.400000 6.092739
v 3.875134 2.400000 3.725372
v 6.187003 2.400000 6.216974
v 3.753812 2.400000 3.843706
v 3.644875 2.400000 3.973532
v 3.549406 2.400000 4.113560
v 3.352569 2.400000 5.419487
v 3.318988 2.400000 5.253372
v 3.302113 2.400000 5.084738
v 3.302113 2.400000 4.915262
v 3.318988 2.400000 4.746628
v 3.352569 2.400000 4.580513
v 3.402523 2.400000 4.418566
v 3.468353 2.400000 4.262398
v 0.000000 2.400000 10.000000
v 5.775558 2.400000 6.512782
v 5.621080 2.400000 6.582485
v 5.460429 2.400000 6.636461
v 5.295202 2.400000 6.674173
v 5.127041 2.400000 6.695246
v 4.957618 2.400000 6.699471
v 4.788616 2.400000 6.686807
v 4.621715 2.400000 6.657377
v 4.458573 2.400000 6.611476
v 4.300812 2.400000 6.549560
v 4.150000 2.400000 6.472243
v 4.007636 2.400000 6.380295
v 3.875134 2.400000 6.274628
v 3.753812 2.400000 6.156294
v 3.644875 2.400000 6.026467
v 3.549406 2.400000 5.886440
v 3.468353 2.400000 5.737602
v 3.402523 2.400000 5.581434
v 5.922328 2.400000 6.428044
v 6.059933 2.400000 6.329113
v 105.007637 2.400000 6.380295
v 104.875137 2.400000 6.274628
v 108.000000 0.000000 0.000000
v 108.294052 0.000000 0.014446
v 108.585274 0.000000 0.057644
v 108.870857 0.000000 0.129179
v 109.148048 0.000000 0.228361
v 109.414192 0.000000 0.354236
v 109.666710 0.000000 0.505591
v 109.903183 0.000000 0.680969
v 110.121323 0.000000 0.878680
v 110.319031 0.000000 1.096820
v 110.494408 0.000000 1.333289
v 110.645767 0.000000 1.585810
v 110.771637 0.000000 1.851950
v 110.870819 0.000000 2.129146
v 110.942352 0.000000 2.414729
v 110.985558 0.000000 2.705949
v 111.000000 0.000000 3.000000
v 6.700000 -0.000000 5.000000
v 6.691552 -0.000000 5.169265
v 6.666293 -0.000000 5.336848
v 6.624474 -0.000000 5.501084
v 6.566510 -0.000000 5.660339
v 6.492977 -0.000000 5.813032
v 6.404606 -0.000000 5.957644
v 6.302276 -0.000000 6.092739
v 6.187003 -0.000000 6.216974
v 6.059933 -0.000000 6.329113
v 5.922328 -0.000000 6.428044
v 5.775558 -0.000000 6.512782
v 5.621080 -0.000000 6.582485
v 5.460429 -0.000000 6.636461
v 5.295202 -0.000000 6.674173
v 5.127041 -0.000000 6.695246
v 4.957618 -0.000000 6.699471
v 4.788616 -0.000000 6.686807
v 4.621715 -0.000000 6.657377
v 4.458573 -0.000000 6.611476
v 4.300812 -0.000000 6.549560
v 4.150000 -0.000000 6.472243
v 4.007636 -0.000000 6.380295
v 3.875134 -0.000000 6.274628
v 3.753812 -0.000000 6.156294
v 3.644875 -0.000000 6.026467
v 3.549406 -0.000000 5.886440
v 3.468353 -0.000000 5.737602
v 3.402523 -0.000000 5.581434
v 3.352569 -0.000000 5.419487
v 3.318988 -0.000000 5.253372
v 3.302113 -0.000000 5.084738
v 3.302113 -0.000000 4.915262
v 3.318988 -0.000000 4.746628
v 3.352569 -0.000000 4.580513
v 3.402523 -0.000000 4.418566
v 3.468353 -0.000000 4.262398
v 3.549406 -0.000000 4.113560
v 3.644875 -0.000000 3.973532
v 3.753812 -0.000000 3.843706
v 3.875134 -0.000000 3.725372
v 4.007636 -0.000000 3.619705
v 4.150000 -0.000000 3.527757
v 4.300812 -0.000000 3.450440
v 4.458573 -0.000000 3.388524
v 4.621715 -0.000000 3.342623
v 4.788616 -0.000000 3.313193
v 4.957618 -0.000000 3.300528
v 5.127041 -0.000000 3.304754
v 5.295202 -0.000000 3.325827
v 5.460429 -0.000000 3.363539
v 5.621080 -0.000000 3.417515
v 5.775558 -0.000000 3.487218
v 5.922328 -0.000000 3.571956
v 6.059933 -0.000000 3.670887
v 6.187003 -0.000000 3.783026
v 6.302276 -0.000000 3.907261
v 6.404606 -0.000000 4.042356
v 6.492977 -0.000000 4.186968
v 6.566510 -0.000000 4.339661
v 6.624474 -0.000000 4.498916
v 6.666293 -0.000000 4.663152
v 6.691552 -0.000000 4.830735
v 107.699997 -0.000000 5.000000
v 107.691551 -0.000000 5.169265
v 107.666290 -0.000000 5.336848
v 107.624474 -0.000000 5.501084
v 107.566513 -0.000000 5.660339
v 107.492973 -0.000000 5.813032
v 107.404610 -0.000000 5.957644
v 107.302277 -0.000000 6.092739
v 107.187004 -0.000000 6.216974
v 107.059929 -0.000000 6.329113
v 106.922325 -0.000000 6.428044
v 106.775558 -0.000000 6.512782
v 106.621078 -0.000000 6.582485
v 106.460426 -0.000000 6.636461
v 106.295204 -0.000000 6.674173
v 106.127045 -0.000000 6.695246
v 105.957619 -0.000000 6.699471
v 105.788612 -0.000000 6.686807
v 105.621712 -0.000000 6.657377
v 105.458572 -0.000000 6.611476
v 105.300812 -0.000000 6.549560
v 105.150002 -0.000000 6.472243
v 105.007637 -0.000000 6.380295
v 104.875137 -0.000000 6.274628
v 104.753815 -0.000000 6.156294
v 104.644875 -0.000000 6.026467
v 104.549408 -0.000000 5.886440
v 104.468353 -0.000000 5.737602
v 104.402519 -0.000000 5.581434
v 104.352570 -0.000000 5.419487
v 104.318985 -0.000000 5.253372
v 104.302116 -0.000000 5.084738
v 104.302116 -0.000000 4.915262
v 104.318985 -0.000000 4.746628
v 104.352570 -0.000000 4.580513
v 104.402519 -0.000000 4.418566
v 104.468353 -0.000000 4.262398
v 104.549408 -0.000000 4.113560
v 104.644875 -0.000000 3.973532
v 104.753815 -0.000000 3.843706
v 104.875137 -0.000000 3.725372
v 105.007637 -0.000000 3.619705
v 105.150002 -0.000000 3.527757
v 105.300812 -0.000000 3.450440
v 105.458572 -0.000000 3.388524
v 105.621712 -0.000000 3.342623
v 105.788612 -0.000000 3.313193
v 105.957619 -0.000000 3.300528
v 106.127045 -0.000000 3.304754
v 106.295204 -0.000000 3.325827
v 106.460426 -0.000000 3.363539
v 106.621078 -0.000000 3.417515
v 106.775558 -0.000000 3.487218
v 106.922325 -0.000000 3.571956
v 107.059929 -0.000000 3.670887
v 107.187004 -0.000000 3.783026
v 107.302277 -0.000000 3.907261
v 107.404610 -0.000000 4.042356
v 107.492973 -0.000000 4.186968
v 107.566513 -0.000000 4.339661
v 107.624474 -0.000000 4.498916
v 107.666290 -0.000000 4.663152
v 107.691551 -0.000000 4.830735
v 111.000000 1.200000 10.000000
v 0.000000 1.200000 10.000000
v 17.700001 18.600000 2.400000
v 9.700000 18.600000 2.400000
v 93.300003 18.600000 2.400000
v 93.300003 20.200001 2.400000
v 17.700001 20.200001 2.400000
v 101.300003 18.600000 2.400000
v 0.000000 1.200000 14.500000
v 111.000000 1.200000 14.500000
v 93.300003 20.200001 11.400000
v 93.300003 18.600000 11.400000
v 101.300003 18.600000 11.400000
v 9.700000 18.600000 11.400000
v 17.700001 18.600000 11.400000
v 17.700001 20.200001 11.400000
v 111.000000 0.000000 14.500000
v 0.000000 0.000000 14.500000
v 9.700000 20.200001 11.400000
v 101.300003 20.200001 11.400000
v 101.300003 20.200001 0.000000
v 9.700000 20.200001 0.000000
vn -0.998795 0.000000 -0.049068
vn -0.998795 0.000000 -0.049068
vn -0.989177 0.000000 -0.146731
vn -0.989177 0.000000 -0.146731
vn -0.970031 0.000000 -0.242980
vn -0.970031 0.000000 -0.242980
vn -0.941544 0.000000 -0.336890
vn -0.903989 0.000000 -0.427555
vn -0.941544 0.000000 -0.336890
vn -0.903989 0.000000 -0.427555
vn -0.857729 0.000000 -0.514103
vn -0.857729 0.000000 -0.514103
vn -0.803208 0.000000 -0.595699
vn -0.740951 0.000000 -0.671559
vn -0.803208 0.000000 -0.595699
vn -0.671559 0.000000 -0.740951
vn -0.740951 0.000000 -0.671559
vn -0.595699 0.000000 -0.803208
vn -0.671559 0.000000 -0.740951
vn -0.595699 0.000000 -0.803208
vn -0.514103 0.000000 -0.857729
vn -0.427555 0.000000 -0.903989
vn -0.514103 0.000000 -0.857729
vn -0.427555 0.000000 -0.903989
vn -0.336890 0.000000 -0.941544
vn -0.336890 0.000000 -0.941544
vn -0.242980 0.000000 -0.970031
vn -0.242980 0.000000 -0.970031
vn -0.146731 0.000000 -0.989177
vn -0.146731 0.000000 -0.989177
vn -0.049068 -0.000000 -0.998795
vn -0.049068 0.000000 -0.998795
vn 0.000000 1.000000 0.000000
vn 0.000000 1.000000 0.000000
vn 0.000000 1.000000 0.000000
vn 0.000000 1.000000 0.000000
vn 0.000000 1.000000 0.000000
vn 0.000000 1.000000 0.000000
vn 0.000000 1.000000 0.000000
vn 0.000000 1.000000 0.000000
vn 0.000000 1.000000 0.000000
vn 0.000000 1.000000 0.000000
vn 0.000000 1.000000 0.000000
vn 0.000000 1.000000 0.000000
vn -0.000000 1.000000 0.000000
vn 0.000000 1.000000 0.000000
vn 0.000000 1.000000 0.000000
vn 0.000000 1.000000 0.000000
vn 0.000000 1.000000 0.000000
vn -0.000000 1.000000 0.000000
vn 0.000000 1.000000 0.000000
vn 0.000000 1.000000 0.000000
vn 0.000000 1.000000 0.000000
vn -0.000000 1.000000 0.000000
vn 0.000000 1.000000 0.000000
vn -0.000000 1.000000 0.000000
vn 0.000000 1.000000 0.000000
vn -0.000000 1.000000 0.000000
vn 0.000000 1.000000 0.000000
vn -0.000000 1.000000 0.000000
vn 0.000000 1.000000 0.000000
vn -0.000000 1.000000 0.000000
vn 0.000000 1.000000 0.000000
vn -0.000000 1.000000 0.000000
vn 0.000000 1.000000 0.000000
vn 0.000000 1.000000 0.000000
vn 0.000000 1.000000 0.000000
vn 0.000000 1.000000 0.000000
vn 0.000000 1.000000 0.000000
vn 0.000000 1.000000 0.000000
vn 0.000000 1.000000 0.000000
vn 0.000000 1.000000 0.000000
vn 0.000000 1.000000 0.000000
vn 0.000000 1.000000 0.000000
vn 0.000000 1.000000 0.000000
vn 0.000000 1.000000 0.000000
vn 0.000000 1.000000 0.000000
vn 0.000000 1.000000 0.000000
vn -0.000000 1.000000 0.000000
vn -0.000000 1.000000 0.000000
vn -0.000000 1.000000 0.000000
vn -0.000000 1.000000 0.000000
vn -0.000000 1.000000 0.000000
vn -0.000000 1.000000 0.000000
vn -0.000000 1.000000 0.000000
vn -0.000000 1.000000 0.000000
vn -0.000000 1.000000 0.000000
vn 0.000000 1.000000 0.000000
vn 0.000000 1.000000 0.000000
vn 0.000000 1.000000 0.000000
vn 0.000000 1.000000 0.000000
vn 0.000000 1.000000 0.000000
vn 0.000000 1.000000 0.000000
vn 0.000000 1.000000 0.000000
vn 0.000000 1.000000 0.000000
vn 0.000000 1.000000 0.000000
vn 0.000000 1.000000 0.000000
vn 0.000000 1.000000 0.000000
vn 0.000000 1.000000 0.000000
vn 0.000000 1.000000 0.000000
vn 0.000000 1.000000 0.000000
vn 0.000000 1.000000 0.000000
vn -0.000000 1.000000 0.000000
vn 0.000000 1.000000 0.000000
vn 0.000000 1.000000 0.000000
vn 0.000000 1.000000 0.000000
vn 0.000000 1.000000 0.000000
vn 0.000000 1.000000 0.000000
vn 0.000000 1.000000 0.000000
vn 0.000000 1.000000 0.000000
vn 0.000000 1.000000 0.000000
vn 0.000000 1.000000 0.000000
vn -0.000000 1.000000 0.000000
vn 0.000000 1.000000 0.000000
vn -0.000000 1.000000 0.000000
vn 0.000000 1.000000 0.000000
vn 0.000000 1.000000 0.000000
vn -0.000000 1.000000 0.000000
vn 0.000000 1.000000 0.000000
vn -0.000000 1.000000 0.000000
vn 0.000000 1.000000 0.000000
vn 0.000000 1.000000 0.000000
vn -0.000000 1.000000 0.000000
vn 0.000000 1.000000 0.000000
vn -0.000000 1.000000 0.000000
vn 0.000000 1.000000 0.000000
vn -0.000000 1.000000 0.000000
vn 0.000000 1.000000 0.000000
vn -0.000000 1.000000 0.000000
vn 0.000000 1.000000 0.000000
vn 0.000000 1.000000 0.000000
vn 0.000000 1.000000 0.000000
vn 0.000000 1.000000 0.000000
vn 0.000000 1.000000 0.000000
vn 0.000000 1.000000 0.000000
vn 0.000000 1.000000 0.000000
vn 0.000000 1.000000 0.000000
vn 0.000000 1.000000 0.000000
vn 0.000000 1.000000 0.000000
vn 0.000000 1.000000 0.000000
vn 0.000000 1.000000 0.000000
vn 0.000000 1.000000 0.000000
vn 0.000000 1.000000 0.000000
vn 0.000000 1.000000 0.000000
vn 0.000000 1.000000 0.000000
vn -0.000000 1.000000 0.000000
vn 0.000000 1.000000 0.000000
vn 0.000000 1.000000 0.000000
vn 0.000000 1.000000 0.000000
vn 0.000000 1.000000 0.000000
vn 0.000000 1.000000 0.000000
vn 0.000000 1.000000 0.000000
vn 0.000000 1.000000 0.000000
vn 0.000000 1.000000 0.000000
vn 0.000000 1.000000 0.000000
vn -0.000000 1.000000 0.000000
vn -0.000000 1.000000 0.000000
vn -0.000000 1.000000 0.000000
vn -0.000000 1.000000 0.000000
vn 0.000000 1.000000 0.000000
vn -0.000000 1.000000 0.000000
vn -0.000000 1.000000 0.000000
vn 0.000000 1.000000 0.000000
vn -0.000000 1.000000 0.000000
vn 0.000000 1.000000 0.000000
vn 0.000000 1.000000 0.000000
vn 0.000000 1.000000 0.000000
vn 0.000000 1.000000 0.000000
vn 0.000000 1.000000 0.000000
vn 0.000000 1.000000 0.000000
vn 0.000000 1.000000 0.000000
vn 0.000000 1.000000 0.000000
vn -0.000000 1.000000 0.000000
vn 0.000000 1.000000 0.000000
vn 0.000000 1.000000 0.000000
vn 0.000000 1.000000 0.000000
vn 0.000000 1.000000 0.000000
vn 0.000000 1.000000 0.000000
vn 0.000000 1.000000 0.000000
vn 0.000000 1.000000 0.000000
vn 0.000000 1.000000 0.000000
vn 0.000000 1.000000 0.000000
vn 0.000000 1.000000 0.000000
vn 0.000000 1.000000 0.000000
vn 0.000000 1.000000 0.000000
vn 0.000000 1.000000 0.000000
vn 0.000000 1.000000 0.000000
vn 0.000000 1.000000 0.000000
vn 0.000000 1.000000 0.000000
vn 0.000000 1.000000 0.000000
vn 0.000000 1.000000 0.000000
vn 0.000000 1.000000 0.000000
vn -0.000000 1.000000 0.000000
vn -0.000000 1.000000 0.000000
vn -0.000000 1.000000 0.000000
vn -0.000000 1.000000 0.000000
vn 0.000000 1.000000 0.000000
vn 0.000000 1.000000 0.000000
vn 0.000000 1.000000 0.000000
vn -0.000000 1.000000 0.000000
vn 0.049068 -0.000000 -0.998795
vn 0.049068 0.000000 -0.998795
vn 0.146729 0.000000 -0.989177
vn 0.146729 0.000000 -0.989177
vn 0.242980 0.000000 -0.970031
vn 0.242980 0.000000 -0.970031
vn 0.336895 0.000000 -0.941542
vn 0.336895 0.000000 -0.941542
vn 0.427550 0.000000 -0.903992
vn 0.427550 0.000000 -0.903992
vn 0.514107 0.000000 -0.857726
vn 0.514107 0.000000 -0.857726
vn 0.595693 0.000000 -0.803212
vn 0.595693 0.000000 -0.803212
vn 0.671560 0.000000 -0.740950
vn 0.740956 0.000000 -0.671554
vn 0.671560 0.000000 -0.740950
vn 0.740956 0.000000 -0.671554
vn 0.803209 0.000000 -0.595698
vn 0.857722 0.000000 -0.514114
vn 0.803209 0.000000 -0.595698
vn 0.903996 0.000000 -0.427541
vn 0.857722 0.000000 -0.514114
vn 0.941544 0.000000 -0.336889
vn 0.903996 0.000000 -0.427541
vn 0.941544 0.000000 -0.336889
vn 0.970033 0.000000 -0.242975
vn 0.970033 0.000000 -0.242975
vn 0.989173 0.000000 -0.146754
vn 0.989173 0.000000 -0.146754
vn 0.998796 0.000000 -0.049056
vn 0.998796 0.000000 -0.049056
vn -0.998757 0.000000 -0.049846
vn -0.998757 0.000000 -0.049846
vn -0.988831 0.000000 -0.149042
vn -0.988831 0.000000 -0.149042
vn -0.969077 0.000000 -0.246758
vn -0.969077 0.000000 -0.246758
vn -0.939693 0.000000 -0.342018
vn -0.939693 0.000000 -0.342018
vn -0.900968 0.000000 -0.433885
vn -0.900968 0.000000 -0.433885
vn -0.853291 0.000000 -0.521435
vn -0.853291 0.000000 -0.521435
vn -0.797134 -0.000000 -0.603803
vn -0.797134 0.000000 -0.603803
vn -0.733052 0.000000 -0.680173
vn -0.733052 0.000000 -0.680173
vn -0.661685 0.000000 -0.749782
vn -0.661685 0.000000 -0.749782
vn -0.583742 -0.000000 -0.811939
vn -0.583742 0.000000 -0.811939
vn -0.500001 0.000000 -0.866025
vn -0.500001 0.000000 -0.866025
vn -0.411287 0.000000 -0.911506
vn -0.318487 -0.000000 -0.947927
vn -0.411287 0.000000 -0.911506
vn -0.318487 0.000000 -0.947927
vn -0.222522 0.000000 -0.974928
vn -0.222522 0.000000 -0.974928
vn -0.124342 0.000000 -0.992240
vn -0.024931 -0.000000 -0.999689
vn -0.124342 0.000000 -0.992240
vn -0.024931 0.000000 -0.999689
vn 0.074729 0.000000 -0.997204
vn 0.074729 0.000000 -0.997204
vn 0.173650 0.000000 -0.984807
vn 0.173650 0.000000 -0.984807
vn 0.270840 0.000000 -0.962624
vn 0.270840 0.000000 -0.962624
vn 0.365339 0.000000 -0.930874
vn 0.365339 0.000000 -0.930874
vn 0.456211 0.000000 -0.889872
vn 0.456211 0.000000 -0.889872
vn 0.542545 0.000000 -0.840027
vn 0.542545 0.000000 -0.840027
vn 0.623490 0.000000 -0.781831
vn 0.623490 0.000000 -0.781831
vn 0.698237 0.000000 -0.715867
vn 0.698237 0.000000 -0.715867
vn 0.766046 0.000000 -0.642786
vn 0.766046 0.000000 -0.642786
vn 0.826239 0.000000 -0.563320
vn 0.826239 0.000000 -0.563320
vn 0.878222 0.000000 -0.478254
vn 0.878222 0.000000 -0.478254
vn 0.921476 0.000000 -0.388436
vn 0.921476 0.000000 -0.388436
vn 0.955573 0.000000 -0.294755
vn 0.955573 0.000000 -0.294755
vn 0.980173 0.000000 -0.198146
vn 0.980173 0.000000 -0.198146
vn 0.995031 0.000000 -0.099568
vn 0.995031 0.000000 -0.099568
vn 1.000000 -0.000000 0.000000
vn 1.000000 0.000000 0.000000
vn 0.995031 0.000000 0.099568
vn 0.995031 0.000000 0.099568
vn 0.980173 0.000000 0.198146
vn 0.980173 0.000000 0.198146
vn 0.955573 -0.000000 0.294755
vn 0.955573 0.000000 0.294755
vn 0.921476 0.000000 0.388436
vn 0.878222 0.000000 0.478254
vn 0.921476 0.000000 0.388436
vn 0.878222 0.000000 0.478254
vn 0.826239 0.000000 0.563320
vn 0.826239 -0.000000 0.563320
vn 0.766044 0.000000 0.642788
vn 0.766044 -0.000000 0.642788
vn 0.698238 0.000000 0.715866
vn 0.623489 0.000000 0.781832
vn 0.698238 -0.000000 0.715866
vn 0.623489 0.000000 0.781832
vn 0.542545 0.000000 0.840027
vn 0.542545 -0.000000 0.840027
vn 0.456211 -0.000000 0.889872
vn 0.456211 0.000000 0.889872
vn 0.365341 -0.000000 0.930874
vn 0.365341 0.000000 0.930874
vn 0.270841 0.000000 0.962624
vn 0.270841 0.000000 0.962624
vn 0.173648 0.000000 0.984808
vn 0.173648 -0.000000 0.984808
vn 0.074731 0.000000 0.997204
vn 0.074731 -0.000000 0.997204
vn -0.024931 0.000000 0.999689
vn -0.024931 0.000000 0.999689
vn -0.124344 0.000000 0.992239
vn -0.124344 0.000000 0.992239
vn -0.222520 0.000000 0.974928
vn -0.222520 0.000000 0.974928
vn -0.318486 0.000000 0.947928
vn -0.411288 0.000000 0.911505
vn -0.318486 0.000000 0.947928
vn -0.411288 0.000000 0.911505
vn -0.500000 0.000000 0.866025
vn -0.500000 0.000000 0.866025
vn -0.583743 0.000000 0.811938
vn -0.661686 0.000000 0.749781
vn -0.583743 0.000000 0.811938
vn -0.661686 0.000000 0.749781
vn -0.733052 0.000000 0.680173
vn -0.797133 0.000000 0.603804
vn -0.733052 0.000000 0.680173
vn -0.797133 0.000000 0.603804
vn -0.853291 0.000000 0.521435
vn -0.853291 0.000000 0.521435
vn -0.900968 0.000000 0.433885
vn -0.900968 0.000000 0.433885
vn -0.939693 0.000000 0.342018
vn -0.969077 0.000000 0.246758
vn -0.939693 0.000000 0.342018
vn -0.969077 0.000000 0.246758
vn -0.988831 0.000000 0.149042
vn -0.988831 0.000000 0.149042
vn -0.998757 0.000000 0.049846
vn -0.998757 0.000000 0.049846
vn -0.998757 0.000000 -0.049834
vn -0.998757 0.000000 -0.049834
vn -0.988829 0.000000 -0.149053
vn -0.988829 0.000000 -0.149053
vn -0.969081 0.000000 -0.246742
vn -0.969081 0.000000 -0.246742
vn -0.939700 0.000000 -0.342001
vn -0.939700 0.000000 -0.342001
vn -0.900953 0.000000 -0.433917
vn -0.900953 0.000000 -0.433917
vn -0.853309 0.000000 -0.521405
vn -0.853309 0.000000 -0.521405
vn -0.797125 -0.000000 -0.603814
vn -0.797125 0.000000 -0.603814
vn -0.733053 0.000000 -0.680171
vn -0.733053 0.000000 -0.680171
vn -0.661670 0.000000 -0.749795
vn -0.661670 0.000000 -0.749795
vn -0.583744 -0.000000 -0.811938
vn -0.583744 0.000000 -0.811938
vn -0.500011 0.000000 -0.866019
vn -0.500011 0.000000 -0.866019
vn -0.411283 0.000000 -0.911508
vn -0.318486 -0.000000 -0.947928
vn -0.411283 0.000000 -0.911508
vn -0.318486 0.000000 -0.947928
vn -0.222528 0.000000 -0.974926
vn -0.222528 0.000000 -0.974926
vn -0.124342 0.000000 -0.992239
vn -0.024931 -0.000000 -0.999689
vn -0.124342 0.000000 -0.992239
vn -0.024931 0.000000 -0.999689
vn 0.074727 0.000000 -0.997204
vn 0.074727 0.000000 -0.997204
vn 0.173650 0.000000 -0.984807
vn 0.173650 0.000000 -0.984807
vn 0.270843 0.000000 -0.962623
vn 0.270843 0.000000 -0.962623
vn 0.365340 0.000000 -0.930874
vn 0.365340 0.000000 -0.930874
vn 0.456215 0.000000 -0.889870
vn 0.456215 0.000000 -0.889870
vn 0.542545 0.000000 -0.840027
vn 0.542545 0.000000 -0.840027
vn 0.623496 0.000000 -0.781827
vn 0.623496 0.000000 -0.781827
vn 0.698235 0.000000 -0.715868
vn 0.698235 0.000000 -0.715868
vn 0.766037 0.000000 -0.642797
vn 0.766037 0.000000 -0.642797
vn 0.826246 0.000000 -0.563310
vn 0.826246 0.000000 -0.563310
vn 0.878216 0.000000 -0.478263
vn 0.878216 0.000000 -0.478263
vn 0.921468 0.000000 -0.388453
vn 0.921468 0.000000 -0.388453
vn 0.955580 0.000000 -0.294732
vn 0.955580 0.000000 -0.294732
vn 0.980168 0.000000 -0.198166
vn 0.980168 0.000000 -0.198166
vn 0.995034 0.000000 -0.099534
vn 0.995034 0.000000 -0.099534
vn 1.000000 -0.000000 0.000000
vn 1.000000 0.000000 0.000000
vn 0.995034 0.000000 0.099534
vn 0.995034 0.000000 0.099534
vn 0.980168 0.000000 0.198166
vn 0.980168 0.000000 0.198166
vn 0.955580 -0.000000 0.294732
vn 0.955580 0.000000 0.294732
vn 0.921468 0.000000 0.388453
vn 0.878216 0.000000 0.478263
vn 0.921468 0.000000 0.388453
vn 0.878216 0.000000 0.478263
vn 0.826246 0.000000 0.563309
vn 0.826246 -0.000000 0.563309
vn 0.766035 0.000000 0.642798
vn 0.766035 -0.000000 0.642798
vn 0.698236 0.000000 0.715867
vn 0.623495 0.000000 0.781827
vn 0.698236 -0.000000 0.715867
vn 0.623495 0.000000 0.781827
vn 0.542545 0.000000 0.840027
vn 0.542545 -0.000000 0.840027
vn 0.456215 -0.000000 0.889870
vn 0.456215 0.000000 0.889870
vn 0.365342 -0.000000 0.930874
vn 0.365342 0.000000 0.930874
vn 0.270845 0.000000 0.962623
vn 0.270845 0.000000 0.962623
vn 0.173649 0.000000 0.984808
vn 0.173649 -0.000000 0.984808
vn 0.074729 0.000000 0.997204
vn 0.074729 -0.000000 0.997204
vn -0.024931 0.000000 0.999689
vn -0.024931 0.000000 0.999689
vn -0.124345 0.000000 0.992239
vn -0.124345 0.000000 0.992239
vn -0.222526 0.000000 0.974927
vn -0.222526 0.000000 0.974927
vn -0.318484 0.000000 0.947928
vn -0.411284 0.000000 0.911507
vn -0.318484 0.000000 0.947928
vn -0.411284 0.000000 0.911507
vn -0.500010 0.000000 0.866020
vn -0.500010 0.000000 0.866020
vn -0.583745 0.000000 0.811937
vn -0.661671 0.000000 0.749795
vn -0.583745 0.000000 0.811937
vn -0.661671 0.000000 0.749795
vn -0.733053 0.000000 0.680171
vn -0.797125 0.000000 0.603814
vn -0.733053 0.000000 0.680171
vn -0.797125 0.000000 0.603814
vn -0.853309 0.000000 0.521405
vn -0.853309 0.000000 0.521405
vn -0.900953 0.000000 0.433917
vn -0.900953 0.000000 0.433917
vn -0.939700 0.000000 0.342001
vn -0.969081 0.000000 0.246742
vn -0.939700 0.000000 0.342001
vn -0.969081 0.000000 0.246742
vn -0.988829 0.000000 0.149053
vn -0.988829 0.000000 0.149053
vn -0.998757 0.000000 0.049834
vn -0.998757 0.000000 0.049834
vn 0.000000 -0.000000 1.000000
vn 0.000000 0.000000 1.000000
vn 0.000000 0.000000 1.000000
vn 0.000000 -0.000000 1.000000
vn 0.000000 0.000000 1.000000
vn 0.000000 -0.000000 1.000000
vn 0.000000 0.000000 1.000000
vn 0.000000 0.000000 1.000000
vn -0.000000 1.000000 0.000000
vn 0.000000 1.000000 0.000000
vn -1.000000 -0.000000 -0.000000
vn -1.000000 0.000000 0.000000
vn 0.000000 -1.000000 0.000000
vn -0.000000 -1.000000 -0.000000
vn 0.000000 -1.000000 0.000000
vn -0.000000 -1.000000 -0.000000
vn 1.000000 0.000000 -0.000000
vn 1.000000 0.000000 0.000000
vn 0.000000 -0.000000 1.000000
vn 0.000000 0.000000 1.000000
vn 0.000000 -0.000000 1.000000
vn 0.000000 0.000000 1.000000
vn 0.000000 -0.000000 1.000000
vn 0.000000 0.000000 1.000000
vn -0.000000 -1.000000 -0.000000
vn -0.000000 -1.000000 -0.000000
vn -0.000000 -1.000000 -0.000000
vn -0.000000 -1.000000 -0.000000
vn -0.000000 -1.000000 -0.000000
vn -0.000000 -1.000000 -0.000000
vn -0.000000 -1.000000 -0.000000
vn -0.000000 -1.000000 -0.000000
vn -0.000000 -1.000000 -0.000000
vn -0.000000 -1.000000 -0.000000
vn -0.000000 -1.000000 -0.000000
vn -0.000000 -1.000000 -0.000000
vn -0.000000 -1.000000 -0.000000
vn -0.000000 -1.000000 -0.000000
vn -0.000000 -1.000000 -0.000000
vn -0.000000 -1.000000 -0.000000
vn -0.000000 -1.000000 -0.000000
vn -0.000000 -1.000000 -0.000000
vn -0.000000 -1.000000 -0.000000
vn -0.000000 -1.000000 -0.000000
vn -0.000000 -1.000000 -0.000000
vn -0.000000 -1.000000 -0.000000
vn -0.000000 -1.000000 -0.000000
vn -0.000000 -1.000000 -0.000000
vn -0.000000 -1.000000 -0.000000
vn -0.000000 -1.000000 -0.000000
vn -0.000000 -1.000000 -0.000000
vn -0.000000 -1.000000 -0.000000
vn -0.000000 -1.000000 -0.000000
vn -0.000000 -1.000000 -0.000000
vn -0.000000 -1.000000 -0.000000
vn -0.000000 -1.000000 -0.000000
vn 0.000000 -1.000000 -0.000000
vn -0.000000 -1.000000 0.000000
vn 0.000000 -1.000000 -0.000000
vn -0.000000 -1.000000 0.000000
vn 0.000000 -1.000000 -0.000000
vn -0.000000 -1.000000 0.000000
vn 0.000000 -1.000000 -0.000000
vn -0.000000 -1.000000 0.000000
vn 0.000000 -1.000000 -0.000000
vn -0.000000 -1.000000 0.000000
vn 0.000000 -1.000000 -0.000000
vn 0.000000 -1.000000 -0.000000
vn 0.000000 -1.000000 -0.000000
vn 0.000000 -1.000000 -0.000000
vn 0.000000 -1.000000 0.000000
vn 0.000000 -1.000000 0.000000
vn 0.000000 -1.000000 0.000000
vn 0.000000 -1.000000 0.000000
vn 0.000000 -1.000000 0.000000
vn 0.000000 -1.000000 0.000000
vn 0.000000 -1.000000 0.000000
vn 0.000000 -1.000000 0.000000
vn 0.000000 -1.000000 0.000000
vn -0.000000 -1.000000 0.000000
vn -0.000000 -1.000000 0.000000
vn -0.000000 -1.000000 0.000000
vn -0.000000 -1.000000 0.000000
vn -0.000000 -1.000000 0.000000
vn -0.000000 -1.000000 0.000000
vn -0.000000 -1.000000 0.000000
vn -0.000000 -1.000000 0.000000
vn -0.000000 -1.000000 0.000000
vn -0.000000 -1.000000 0.000000
vn -0.000000 -1.000000 -0.000000
vn 0.000000 -1.000000 -0.000000
vn -0.000000 -1.000000 -0.000000
vn -0.000000 -1.000000 -0.000000
vn -0.000000 -1.000000 0.000000
vn 0.000000 -1.000000 -0.000000
vn -0.000000 -1.000000 -0.000000
vn 0.000000 -1.000000 -0.000000
vn -0.000000 -1.000000 0.000000
vn -0.000000 -1.000000 -0.000000
vn 0.000000 -1.000000 -0.000000
vn -0.000000 -1.000000 0.000000
vn -0.000000 -1.000000 -0.000000
vn -0.000000 -1.000000 0.000000
vn 0.000000 -1.000000 -0.000000
vn -0.000000 -1.000000 -0.000000
vn 0.000000 -1.000000 -0.000000
vn -0.000000 -1.000000 0.000000
vn -0.000000 -1.000000 -0.000000
vn 0.000000 -1.000000 -0.000000
vn -0.000000 -1.000000 0.000000
vn -0.000000 -1.000000 -0.000000
vn -0.000000 -1.000000 0.000000
vn 0.000000 -1.000000 -0.000000
vn -0.000000 -1.000000 -0.000000
vn 0.000000 -1.000000 -0.000000
vn -0.000000 -1.000000 0.000000
vn 0.000000 -1.000000 -0.000000
vn -0.000000 -1.000000 0.000000
vn 0.000000 -1.000000 0.000000
vn 0.000000 -1.000000 -0.000000
vn -0.000000 -1.000000 0.000000
vn 0.000000 -1.000000 0.000000
vn 0.000000 -1.000000 -0.000000
vn -0.000000 -1.000000 0.000000
vn 0.000000 -1.000000 0.000000
vn 0.000000 -1.000000 -0.000000
vn -0.000000 -1.000000 0.000000
vn 0.000000 -1.000000 0.000000
vn 0.000000 -1.000000 -0.000000
vn -0.000000 -1.000000 0.000000
vn 0.000000 -1.000000 0.000000
vn 0.000000 -1.000000 -0.000000
vn 0.000000 -1.000000 -0.000000
vn 0.000000 -1.000000 -0.000000
vn -0.000000 -1.000000 0.000000
vn 0.000000 -1.000000 0.000000
vn 0.000000 -1.000000 -0.000000
vn 0.000000 -1.000000 -0.000000
vn 0.000000 -1.000000 -0.000000
vn 0.000000 -1.000000 -0.000000
vn 0.000000 -1.000000 0.000000
vn 0.000000 -1.000000 -0.000000
vn 0.000000 -1.000000 -0.000000
vn 0.000000 -1.000000 -0.000000
vn 0.000000 -1.000000 -0.000000
vn 0.000000 -1.000000 -0.000000
vn 0.000000 -1.000000 -0.000000
vn 0.000000 -1.000000 -0.000000
vn 0.000000 -1.000000 -0.000000
vn 0.000000 -1.000000 -0.000000
vn 0.000000 -1.000000 -0.000000
vn 0.000000 -1.000000 -0.000000
vn 0.000000 -1.000000 -0.000000
vn 0.000000 -1.000000 -0.000000
vn 0.000000 -1.000000 0.000000
vn 0.000000 -1.000000 0.000000
vn 0.000000 -1.000000 0.000000
vn 0.000000 -1.000000 0.000000
vn 0.000000 -1.000000 0.000000
vn 0.000000 -1.000000 0.000000
vn 0.000000 -1.000000 -0.000000
vn 0.000000 -1.000000 -0.000000
vn 0.000000 -1.000000 -0.000000
vn 0.000000 -1.000000 -0.000000
vn 0.000000 -1.000000 -0.000000
vn 0.000000 -1.000000 -0.000000
vn 0.000000 -1.000000 0.000000
vn 0.000000 -1.000000 0.000000
vn 0.000000 -1.000000 0.000000
vn 0.000000 -1.000000 0.000000
vn 0.000000 -1.000000 0.000000
vn 0.000000 -1.000000 0.000000
vn 0.000000 -1.000000 0.000000
vn 0.000000 -1.000000 0.000000
vn 0.000000 -1.000000 0.000000
vn 0.000000 -1.000000 -0.000000
vn 0.000000 -1.000000 0.000000
vn 0.000000 -1.000000 0.000000
vn -0.000000 -1.000000 0.000000
vn -0.000000 -1.000000 0.000000
vn -0.000000 -1.000000 0.000000
vn -0.000000 -1.000000 0.000000
vn -0.000000 -1.000000 0.000000
vn -0.000000 -1.000000 0.000000
vn -0.000000 -1.000000 0.000000
vn -0.000000 -1.000000 0.000000
vn 0.000000 -1.000000 0.000000
vn -0.000000 -1.000000 0.000000
vn -0.000000 -0.000000 -1.000000
vn -0.000000 -0.000000 -1.000000
vn -0.000000 -0.000000 -1.000000
vn 0.000000 -0.000000 -1.000000
vn -0.000000 -0.000000 -1.000000
vn 0.000000 -0.000000 -1.000000
vn -1.000000 0.000000 0.000000
vn -1.000000 0.000000 0.000000
vn -1.000000 0.000000 0.000000
vn -1.000000 0.000000 0.000000
vn 1.000000 0.000000 -0.000000
vn 1.000000 0.000000 -0.000000
vn 1.000000 0.000000 0.000000
vn 1.000000 0.000000 0.000000
vn -1.000000 -0.000000 0.000000
vn -1.000000 0.000000 0.000000
vn -1.000000 0.000000 0.000000
vn -1.000000 0.000000 0.000000
vn 1.000000 0.000000 0.000000
vn 1.000000 0.000000 -0.000000
vn 1.000000 0.000000 0.000000
vn 1.000000 -0.000000 0.000000
vn 0.000000 1.000000 0.000000
vn -0.000000 1.000000 0.000000
vn 0.000000 1.000000 0.000000
vn 0.000000 1.000000 0.000000
vn -0.000000 1.000000 0.000000
vn 0.000000 1.000000 0.000000
f 1//1 2//1 3//1
f 4//2 1//2 3//2
f 5//3 3//3 6//3
f 5//4 4//4 3//4
f 7//5 6//5 8//5
f 7//6 5//6 6//6
f 9//7 8//7 10//7
f 9//8 10//8 11//8
f 9//9 7//9 8//9
f 12//10 9//10 11//10
f 13//11 11//11 14//11
f 13//12 12//12 11//12
f 15//13 14//13 16//13
f 15//14 16//14 17//14
f 15//15 13//15 14//15
f 18//16 17//16 19//16
f 18//17 15//17 17//17
f 20//18 19//18 21//18
f 20//19 18//19 19//19
f 22//20 20//20 21//20
f 23//21 21//21 24//21
f 23//22 24//22 25//22
f 23//23 22//23 21//23
f 26//24 23//24 25//24
f 27//25 25//25 28//25
f 27//26 26//26 25//26
f 29//27 28//27 30//27
f 29//28 27//28 28//28
f 31//29 30//29 32//29
f 31//30 29//30 30//30
f 33//31 32//31 34//31
f 33//32 31//32 32//32
f 35//33 36//33 37//33
f 35//34 38//34 36//34
f 35//35 39//35 38//35
f 35//36 40//36 39//36
f 35//37 41//37 40//37
f 42//38 43//38 41//38
f 42//39 44//39 43//39
f 42//40 45//40 44//40
f 42//41 41//41 35//41
f 46//42 47//42 48//42
f 46//43 49//43 47//43
f 46//44 37//44 49//44
f 46//45 35//45 37//45
f 50//46 51//46 45//46
f 50//47 52//47 51//47
f 50//48 53//48 52//48
f 50//49 45//49 42//49
f 54//50 46//50 48//50
f 54//51 55//51 56//51
f 54//52 48//52 55//52
f 57//53 53//53 50//53
f 58//54 54//54 56//54
f 59//55 53//55 57//55
f 60//56 58//56 56//56
f 61//57 53//57 59//57
f 62//58 60//58 56//58
f 63//59 53//59 61//59
f 64//60 62//60 56//60
f 65//61 53//61 63//61
f 66//62 64//62 56//62
f 67//63 53//63 65//63
f 68//64 66//64 56//64
f 69//65 53//65 67//65
f 70//66 68//66 56//66
f 71//67 53//67 69//67
f 72//68 70//68 56//68
f 73//69 53//69 71//69
f 74//70 72//70 56//70
f 74//71 75//71 76//71
f 74//72 76//72 77//72
f 74//73 77//73 72//73
f 78//74 53//74 73//74
f 78//75 73//75 79//75
f 78//76 79//76 80//76
f 78//77 80//77 81//77
f 78//78 81//78 82//78
f 83//79 78//79 82//79
f 84//80 78//80 83//80
f 85//81 78//81 84//81
f 86//82 78//82 85//82
f 87//83 78//83 86//83
f 88//84 78//84 87//84
f 89//85 78//85 88//85
f 90//86 78//86 89//86
f 91//87 78//87 90//87
f 92//88 78//88 91//88
f 93//89 78//89 92//89
f 94//90 95//90 96//90
f 94//91 96//91 97//91
f 94//92 97//92 98//92
f 94//93 98//93 99//93
f 94//94 99//94 100//94
f 94//95 100//95 101//95
f 94//96 101//96 102//96
f 94//97 102//97 103//97
f 94//98 103//98 104//98
f 94//99 104//99 105//99
f 94//100 105//100 106//100
f 94//101 106//101 107//101
f 94//102 107//102 75//102
f 94//103 75//103 74//103
f 108//104 78//104 93//104
f 109//105 95//105 94//105
f 110//106 78//106 108//106
f 111//107 109//107 94//107
f 112//108 78//108 110//108
f 113//109 111//109 94//109
f 114//110 113//110 94//110
f 115//111 114//111 94//111
f 116//112 117//112 118//112
f 119//113 118//113 117//113
f 120//114 117//114 116//114
f 121//115 119//115 117//115
f 121//116 117//116 122//116
f 123//117 117//117 120//117
f 124//118 121//118 122//118
f 125//119 117//119 123//119
f 126//120 124//120 122//120
f 127//121 117//121 125//121
f 128//122 122//122 34//122
f 128//123 126//123 122//123
f 129//124 117//124 127//124
f 130//125 128//125 34//125
f 131//126 117//126 129//126
f 132//127 130//127 34//127
f 133//128 117//128 131//128
f 134//129 132//129 34//129
f 135//130 117//130 133//130
f 136//131 134//131 34//131
f 137//132 117//132 135//132
f 138//133 136//133 34//133
f 139//134 117//134 137//134
f 140//135 138//135 34//135
f 141//136 117//136 139//136
f 142//137 140//137 34//137
f 143//138 117//138 141//138
f 144//139 142//139 34//139
f 145//140 117//140 143//140
f 146//141 144//141 34//141
f 146//142 30//142 28//142
f 146//143 32//143 30//143
f 146//144 34//144 32//144
f 147//145 117//145 145//145
f 147//146 115//146 94//146
f 147//147 94//147 117//147
f 148//148 21//148 19//148
f 148//149 24//149 21//149
f 148//150 25//150 24//150
f 148//151 28//151 25//151
f 148//152 146//152 28//152
f 149//153 115//153 147//153
f 150//154 19//154 17//154
f 150//155 148//155 19//155
f 16//156 150//156 17//156
f 14//157 150//157 16//157
f 11//158 150//158 14//158
f 10//159 150//159 11//159
f 10//160 151//160 150//160
f 8//161 151//161 10//161
f 6//162 151//162 8//162
f 3//163 152//163 151//163
f 3//164 151//164 6//164
f 2//165 153//165 154//165
f 2//166 154//166 155//166
f 2//167 155//167 156//167
f 2//168 156//168 157//168
f 2//169 157//169 158//169
f 2//170 158//170 159//170
f 2//171 159//171 160//171
f 2//172 160//172 152//172
f 2//173 152//173 3//173
f 161//174 162//174 163//174
f 161//175 163//175 164//175
f 161//176 164//176 165//176
f 161//177 165//177 166//177
f 161//178 166//178 167//178
f 161//179 167//179 168//179
f 161//180 168//180 169//180
f 161//181 169//181 170//181
f 161//182 170//182 171//182
f 161//183 171//183 172//183
f 161//184 172//184 173//184
f 161//185 173//185 174//185
f 161//186 174//186 175//186
f 161//187 175//187 176//187
f 161//188 176//188 177//188
f 161//189 177//189 178//189
f 161//190 178//190 179//190
f 161//191 179//191 153//191
f 161//192 153//192 2//192
f 161//193 78//193 162//193
f 162//194 78//194 180//194
f 180//195 78//195 181//195
f 181//196 78//196 149//196
f 149//197 78//197 112//197
f 149//198 112//198 182//198
f 149//199 182//199 183//199
f 149//200 183//200 115//200
f 184//201 56//201 55//201
f 185//202 184//202 55//202
f 186//203 55//203 48//203
f 186//204 185//204 55//204
f 187//205 48//205 47//205
f 187//206 186//206 48//206
f 188//207 47//207 49//207
f 188//208 187//208 47//208
f 189//209 49//209 37//209
f 189//210 188//210 49//210
f 190//211 37//211 36//211
f 190//212 189//212 37//212
f 191//213 36//213 38//213
f 191//214 190//214 36//214
f 192//215 38//215 39//215
f 192//216 39//216 40//216
f 192//217 191//217 38//217
f 193//218 192//218 40//218
f 194//219 40//219 41//219
f 194//220 41//220 43//220
f 194//221 193//221 40//221
f 195//222 43//222 44//222
f 195//223 194//223 43//223
f 196//224 44//224 45//224
f 196//225 195//225 44//225
f 197//226 196//226 45//226
f 198//227 45//227 51//227
f 198//228 197//228 45//228
f 199//229 51//229 52//229
f 199//230 198//230 51//230
f 200//231 52//231 53//231
f 200//232 199//232 52//232
f 201//233 202//233 133//233
f 133//234 202//234 135//234
f 202//235 203//235 135//235
f 135//236 203//236 137//236
f 203//237 204//237 137//237
f 137//238 204//238 139//238
f 204//239 205//239 139//239
f 139//240 205//240 141//240
f 205//241 206//241 141//241
f 141//242 206//242 143//242
f 206//243 207//243 143//243
f 143//244 207//244 145//244
f 145//245 207//245 147//245
f 207//246 208//246 147//246
f 208//247 209//247 147//247
f 147//248 209//248 149//248
f 209//249 210//249 149//249
f 149//250 210//250 181//250
f 181//251 210//251 180//251
f 210//252 211//252 180//252
f 211//253 212//253 180//253
f 180//254 212//254 162//254
f 162//255 213//255 163//255
f 163//256 213//256 164//256
f 212//257 213//257 162//257
f 213//258 214//258 164//258
f 164//259 215//259 165//259
f 214//260 215//260 164//260
f 165//261 216//261 166//261
f 166//262 216//262 167//262
f 215//263 216//263 165//263
f 216//264 217//264 167//264
f 217//265 218//265 167//265
f 167//266 218//266 168//266
f 218//267 219//267 168//267
f 168//268 219//268 169//268
f 219//269 220//269 169//269
f 169//270 220//270 170//270
f 170//271 220//271 171//271
f 220//272 221//272 171//272
f 221//273 222//273 171//273
f 171//274 222//274 172//274
f 222//275 223//275 172//275
f 172//276 223//276 173//276
f 223//277 224//277 173//277
f 173//278 224//278 174//278
f 174//279 224//279 175//279
f 224//280 225//280 175//280
f 225//281 226//281 175//281
f 175//282 226//282 176//282
f 176//283 226//283 177//283
f 226//284 227//284 177//284
f 227//285 228//285 177//285
f 177//286 228//286 178//286
f 178//287 228//287 179//287
f 228//288 229//288 179//288
f 179//289 229//289 153//289
f 229//290 230//290 153//290
f 230//291 231//291 153//291
f 153//292 231//292 154//292
f 154//293 231//293 155//293
f 231//294 232//294 155//294
f 232//295 233//295 155//295
f 155//296 233//296 156//296
f 156//297 233//297 157//297
f 233//298 234//298 157//298
f 157//299 234//299 158//299
f 234//300 235//300 158//300
f 235//301 236//301 158//301
f 158//302 236//302 159//302
f 159//303 236//303 160//303
f 160//304 237//304 152//304
f 236//305 237//305 160//305
f 237//306 238//306 152//306
f 152//307 239//307 151//307
f 238//308 239//308 152//308
f 151//309 240//309 150//309
f 239//310 240//310 151//310
f 150//311 241//311 148//311
f 148//312 241//312 146//312
f 240//313 241//313 150//313
f 241//314 242//314 146//314
f 146//315 243//315 144//315
f 242//316 243//316 146//316
f 243//317 244//317 144//317
f 144//318 244//318 142//318
f 244//319 245//319 142//319
f 142//320 245//320 140//320
f 140//321 245//321 138//321
f 245//322 246//322 138//322
f 138//323 247//323 136//323
f 246//324 247//324 138//324
f 136//325 248//325 134//325
f 247//326 248//326 136//326
f 134//327 249//327 132//327
f 248//328 249//328 134//328
f 132//329 250//329 130//329
f 249//330 250//330 132//330
f 130//331 251//331 128//331
f 250//332 251//332 130//332
f 128//333 252//333 126//333
f 126//334 252//334 124//334
f 251//335 252//335 128//335
f 252//336 253//336 124//336
f 124//337 254//337 121//337
f 253//338 254//338 124//338
f 121//339 255//339 119//339
f 119//340 255//340 118//340
f 254//341 255//341 121//341
f 255//342 256//342 118//342
f 118//343 257//343 116//343
f 116//344 257//344 120//344
f 256//345 257//345 118//345
f 257//346 258//346 120//346
f 120//347 258//347 123//347
f 258//348 259//348 123//348
f 123//349 260//349 125//349
f 259//350 260//350 123//350
f 125//351 261//351 127//351
f 127//352 261//352 129//352
f 260//353 261//353 125//353
f 261//354 262//354 129//354
f 129//355 263//355 131//355
f 262//356 263//356 129//356
f 131//357 201//357 133//357
f 263//358 201//358 131//358
f 264//359 265//359 67//359
f 67//360 265//360 69//360
f 265//361 266//361 69//361
f 69//362 266//362 71//362
f 266//363 267//363 71//363
f 71//364 267//364 73//364
f 267//365 268//365 73//365
f 73//366 268//366 79//366
f 268//367 269//367 79//367
f 79//368 269//368 80//368
f 269//369 270//369 80//369
f 80//370 270//370 81//370
f 81//371 270//371 82//371
f 270//372 271//372 82//372
f 271//373 272//373 82//373
f 82//374 272//374 83//374
f 272//375 273//375 83//375
f 83//376 273//376 84//376
f 84//377 273//377 85//377
f 273//378 274//378 85//378
f 274//379 275//379 85//379
f 85//380 275//380 86//380
f 86//381 276//381 87//381
f 87//382 276//382 88//382
f 275//383 276//383 86//383
f 276//384 277//384 88//384
f 88//385 278//385 89//385
f 277//386 278//386 88//386
f 89//387 279//387 90//387
f 90//388 279//388 91//388
f 278//389 279//389 89//389
f 279//390 280//390 91//390
f 280//391 281//391 91//391
f 91//392 281//392 92//392
f 281//393 282//393 92//393
f 92//394 282//394 93//394
f 282//395 283//395 93//395
f 93//396 283//396 108//396
f 108//397 283//397 110//397
f 283//398 284//398 110//398
f 284//399 285//399 110//399
f 110//400 285//400 112//400
f 285//401 286//401 112//401
f 112//402 286//402 182//402
f 286//403 287//403 182//403
f 182//404 287//404 183//404
f 183//405 287//405 115//405
f 287//406 288//406 115//406
f 288//407 289//407 115//407
f 115//408 289//408 114//408
f 114//409 289//409 113//409
f 289//410 290//410 113//410
f 290//411 291//411 113//411
f 113//412 291//412 111//412
f 111//413 291//413 109//413
f 291//414 292//414 109//414
f 109//415 292//415 95//415
f 292//416 293//416 95//416
f 293//417 294//417 95//417
f 95//418 294//418 96//418
f 96//419 294//419 97//419
f 294//420 295//420 97//420
f 295//421 296//421 97//421
f 97//422 296//422 98//422
f 98//423 296//423 99//423
f 296//424 297//424 99//424
f 99//425 297//425 100//425
f 297//426 298//426 100//426
f 298//427 299//427 100//427
f 100//428 299//428 101//428
f 101//429 299//429 102//429
f 102//430 300//430 103//430
f 299//431 300//431 102//431
f 300//432 301//432 103//432
f 103//433 302//433 104//433
f 301//434 302//434 103//434
f 104//435 303//435 105//435
f 302//436 303//436 104//436
f 105//437 304//437 106//437
f 106//438 304//438 107//438
f 303//439 304//439 105//439
f 304//440 305//440 107//440
f 107//441 306//441 75//441
f 305//442 306//442 107//442
f 306//443 307//443 75//443
f 75//444 307//444 76//444
f 307//445 308//445 76//445
f 76//446 308//446 77//446
f 77//447 308//447 72//447
f 308//448 309//448 72//448
f 72//449 310//449 70//449
f 309//450 310//450 72//450
f 70//451 311//451 68//451
f 310//452 311//452 70//452
f 68//453 312//453 66//453
f 311//454 312//454 68//454
f 66//455 313//455 64//455
f 312//456 313//456 66//456
f 64//457 314//457 62//457
f 313//458 314//458 64//458
f 62//459 315//459 60//459
f 60//460 315//460 58//460
f 314//461 315//461 62//461
f 315//462 316//462 58//462
f 58//463 317//463 54//463
f 316//464 317//464 58//464
f 54//465 318//465 46//465
f 46//466 318//466 35//466
f 317//467 318//467 54//467
f 318//468 319//468 35//468
f 35//469 320//469 42//469
f 42//470 320//470 50//470
f 319//471 320//471 35//471
f 320//472 321//472 50//472
f 50//473 321//473 57//473
f 321//474 322//474 57//474
f 57//475 323//475 59//475
f 322//476 323//476 57//476
f 59//477 324//477 61//477
f 61//478 324//478 63//478
f 323//479 324//479 59//479
f 324//480 325//480 63//480
f 63//481 326//481 65//481
f 325//482 326//482 63//482
f 65//483 264//483 67//483
f 326//484 264//484 65//484
f 327//485 78//485 161//485
f 327//486 161//486 328//486
f 117//487 329//487 330//487
f 331//488 332//488 333//488
f 331//489 333//489 329//489
f 94//490 334//490 331//490
f 94//491 329//491 117//491
f 94//492 331//492 329//492
f 335//493 336//493 328//493
f 328//494 336//494 327//494
f 337//495 332//495 338//495
f 332//496 331//496 338//496
f 338//497 331//497 334//497
f 339//498 338//498 334//498
f 340//499 330//499 329//499
f 341//500 340//500 329//500
f 333//501 342//501 341//501
f 329//502 333//502 341//502
f 343//503 336//503 335//503
f 343//504 335//504 344//504
f 341//505 342//505 345//505
f 341//506 345//506 340//506
f 339//507 346//507 337//507
f 339//508 337//508 338//508
f 240//509 9//509 12//509
f 240//510 12//510 13//510
f 240//511 13//511 15//511
f 240//512 15//512 18//512
f 240//513 18//513 20//513
f 241//514 20//514 22//514
f 241//515 22//515 23//515
f 241//516 23//516 26//516
f 241//517 26//517 27//517
f 241//518 240//518 20//518
f 239//519 4//519 5//519
f 239//520 5//520 7//520
f 239//521 7//521 9//521
f 239//522 9//522 240//522
f 242//523 27//523 29//523
f 242//524 29//524 31//524
f 242//525 31//525 33//525
f 242//526 241//526 27//526
f 238//527 1//527 4//527
f 238//528 4//528 239//528
f 243//529 242//529 33//529
f 237//530 1//530 238//530
f 244//531 243//531 33//531
f 236//532 1//532 237//532
f 245//533 244//533 33//533
f 235//534 1//534 236//534
f 246//535 245//535 33//535
f 234//536 1//536 235//536
f 247//537 246//537 33//537
f 233//538 1//538 234//538
f 248//539 247//539 33//539
f 232//540 1//540 233//540
f 249//541 248//541 33//541
f 231//542 1//542 232//542
f 250//543 249//543 33//543
f 230//544 1//544 231//544
f 251//545 250//545 33//545
f 229//546 1//546 230//546
f 252//547 251//547 33//547
f 228//548 1//548 229//548
f 253//549 252//549 33//549
f 227//550 1//550 228//550
f 254//551 253//551 33//551
f 255//552 254//552 33//552
f 256//553 255//553 33//553
f 257//554 256//554 33//554
f 344//555 209//555 208//555
f 344//556 210//556 209//556
f 344//557 211//557 210//557
f 344//558 212//558 211//558
f 344//559 213//559 212//559
f 344//560 214//560 213//560
f 344//561 215//561 214//561
f 344//562 216//562 215//562
f 344//563 217//563 216//563
f 344//564 218//564 217//564
f 344//565 219//565 218//565
f 344//566 220//566 219//566
f 344//567 221//567 220//567
f 344//568 222//568 221//568
f 344//569 223//569 222//569
f 344//570 224//570 223//570
f 344//571 225//571 224//571
f 344//572 226//572 225//572
f 344//573 227//573 226//573
f 344//574 1//574 227//574
f 303//575 33//575 184//575
f 303//576 257//576 33//576
f 304//577 303//577 184//577
f 302//578 258//578 257//578
f 302//579 257//579 303//579
f 305//580 304//580 184//580
f 301//581 258//581 302//581
f 301//582 259//582 258//582
f 306//583 305//583 184//583
f 300//584 259//584 301//584
f 300//585 260//585 259//585
f 307//586 306//586 184//586
f 299//587 261//587 260//587
f 299//588 260//588 300//588
f 308//589 307//589 184//589
f 298//590 261//590 299//590
f 298//591 262//591 261//591
f 309//592 308//592 184//592
f 297//593 262//593 298//593
f 297//594 263//594 262//594
f 310//595 309//595 184//595
f 296//596 201//596 263//596
f 296//597 263//597 297//597
f 311//598 310//598 184//598
f 295//599 201//599 296//599
f 295//600 202//600 201//600
f 312//601 311//601 184//601
f 294//602 203//602 202//602
f 294//603 202//603 295//603
f 313//604 312//604 184//604
f 293//605 204//605 203//605
f 293//606 203//606 294//606
f 314//607 313//607 184//607
f 292//608 205//608 204//608
f 292//609 204//609 293//609
f 315//610 314//610 184//610
f 291//611 206//611 205//611
f 291//612 205//612 292//612
f 316//613 315//613 184//613
f 290//614 207//614 206//614
f 290//615 206//615 291//615
f 317//616 184//616 185//616
f 317//617 185//617 186//617
f 317//618 316//618 184//618
f 289//619 208//619 207//619
f 289//620 207//620 290//620
f 318//621 186//621 187//621
f 318//622 187//622 188//622
f 318//623 188//623 189//623
f 318//624 317//624 186//624
f 288//625 208//625 289//625
f 319//626 189//626 190//626
f 319//627 190//627 191//627
f 319//628 318//628 189//628
f 192//629 319//629 191//629
f 193//630 319//630 192//630
f 194//631 319//631 193//631
f 194//632 320//632 319//632
f 195//633 320//633 194//633
f 196//634 320//634 195//634
f 197//635 320//635 196//635
f 197//636 321//636 320//636
f 198//637 321//637 197//637
f 199//638 321//638 198//638
f 200//639 265//639 264//639
f 200//640 266//640 265//640
f 200//641 267//641 266//641
f 200//642 268//642 267//642
f 200//643 269//643 268//643
f 200//644 321//644 199//644
f 200//645 322//645 321//645
f 200//646 323//646 322//646
f 200//647 324//647 323//647
f 200//648 325//648 324//648
f 200//649 326//649 325//649
f 200//650 264//650 326//650
f 343//651 270//651 269//651
f 343//652 271//652 270//652
f 343//653 272//653 271//653
f 343//654 273//654 272//654
f 343//655 274//655 273//655
f 343//656 275//656 274//656
f 343//657 276//657 275//657
f 343//658 277//658 276//658
f 343//659 278//659 277//659
f 343//660 269//660 200//660
f 343//661 279//661 278//661
f 343//662 280//662 279//662
f 343//663 281//663 280//663
f 343//664 282//664 281//664
f 343//665 283//665 282//665
f 343//666 284//666 283//666
f 343//667 285//667 284//667
f 343//668 286//668 285//668
f 343//669 287//669 286//669
f 343//670 288//670 287//670
f 343//671 344//671 208//671
f 343//672 208//672 288//672
f 122//673 33//673 34//673
f 56//674 184//674 74//674
f 347//675 122//675 348//675
f 347//676 74//676 122//676
f 184//677 33//677 122//677
f 184//678 122//678 74//678
f 328//679 344//679 335//679
f 2//680 328//680 161//680
f 2//681 1//681 328//681
f 1//682 344//682 328//682
f 327//683 336//683 343//683
f 53//684 78//684 327//684
f 200//685 53//685 327//685
f 343//686 200//686 327//686
f 330//687 122//687 117//687
f 330//688 340//688 345//688
f 348//689 330//689 345//689
f 348//690 122//690 330//690
f 334//691 346//691 339//691
f 347//692 346//692 334//692
f 74//693 334//693 94//693
f 74//694 347//694 334//694
f 346//695 347//695 332//695
f 337//696 346//696 332//696
f 348//697 333//697 332//697
f 348//698 332//698 347//698
f 345//699 342//699 333//699
f 345//700 333//700 348//700
