ISO-10303-21;
HEADER;
FILE_DESCRIPTION(('FreeCAD Model'),'2;1');
FILE_NAME('Open CASCADE Shape Model','2026-10-03T19:22:02',('FreeCAD'),(
    'FreeCAD'),'Open CASCADE STEP processor 7.8','FreeCAD','Unknown');
FILE_SCHEMA(('AUTOMOTIVE_DESIGN { 1 0 10303 214 1 1 1 1 }'));
ENDSEC;
DATA;
#1 = APPLICATION_PROTOCOL_DEFINITION('international standard',
  'automotive_design',2000,#2);
#2 = APPLICATION_CONTEXT(
  'core data for automotive mechanical design processes');
#3 = SHAPE_DEFINITION_REPRESENTATION(#4,#10);
#4 = PRODUCT_DEFINITION_SHAPE('','',#5);
#5 = PRODUCT_DEFINITION('design','',#6,#9);
#6 = PRODUCT_DEFINITION_FORMATION('','',#7);
#7 = PRODUCT('Open CASCADE STEP translator 7.8 3',
  'Open CASCADE STEP translator 7.8 3','',(#8));
#8 = PRODUCT_CONTEXT('',#2,'mechanical');
#9 = PRODUCT_DEFINITION_CONTEXT('part definition',#2,'design');
#10 = ADVANCED_BREP_SHAPE_REPRESENTATION('',(#11,#15),#709);
#11 = AXIS2_PLACEMENT_3D('',#12,#13,#14);
#12 = CARTESIAN_POINT('',(0.,0.,0.));
#13 = DIRECTION('',(0.,0.,1.));
#14 = DIRECTION('',(1.,0.,-0.));
#15 = MANIFOLD_SOLID_BREP('',#16);
#16 = CLOSED_SHELL('',(#17,#59,#161,#193,#218,#243,#274,#337,#368,#399,
    #423,#454,#478,#509,#533,#557,#592,#627,#641,#655,#674,#693));
#17 = ADVANCED_FACE('',(#18),#54,.T.);
#18 = FACE_BOUND('',#19,.T.);
#19 = EDGE_LOOP('',(#20,#31,#39,#48));
#20 = ORIENTED_EDGE('',*,*,#21,.F.);
#21 = EDGE_CURVE('',#22,#24,#26,.T.);
#22 = VERTEX_POINT('',#23);
#23 = CARTESIAN_POINT('',(0.,0.,3.));
#24 = VERTEX_POINT('',#25);
#25 = CARTESIAN_POINT('',(3.,0.,2.48689957516E-15));
#26 = CIRCLE('',#27,3.);
#27 = AXIS2_PLACEMENT_3D('',#28,#29,#30);
#28 = CARTESIAN_POINT('',(3.,0.,3.));
#29 = DIRECTION('',(0.,-1.,1.110223024625E-16));
#30 = DIRECTION('',(1.,0.,0.));
#31 = ORIENTED_EDGE('',*,*,#32,.F.);
#32 = EDGE_CURVE('',#33,#22,#35,.T.);
#33 = VERTEX_POINT('',#34);
#34 = CARTESIAN_POINT('',(0.,2.4,3.));
#35 = LINE('',#36,#37);
#36 = CARTESIAN_POINT('',(0.,2.4,3.));
#37 = VECTOR('',#38,1.);
#38 = DIRECTION('',(0.,-1.,1.110223024625E-16));
#39 = ORIENTED_EDGE('',*,*,#40,.T.);
#40 = EDGE_CURVE('',#33,#41,#43,.T.);
#41 = VERTEX_POINT('',#42);
#42 = CARTESIAN_POINT('',(3.,2.4,2.22044604925E-15));
#43 = CIRCLE('',#44,3.);
#44 = AXIS2_PLACEMENT_3D('',#45,#46,#47);
#45 = CARTESIAN_POINT('',(3.,2.4,3.));
#46 = DIRECTION('',(0.,-1.,1.110223024625E-16));
#47 = DIRECTION('',(1.,0.,0.));
#48 = ORIENTED_EDGE('',*,*,#49,.T.);
#49 = EDGE_CURVE('',#41,#24,#50,.T.);
#50 = LINE('',#51,#52);
#51 = CARTESIAN_POINT('',(3.,2.4,2.22044604925E-15));
#52 = VECTOR('',#53,1.);
#53 = DIRECTION('',(0.,-1.,1.110223024625E-16));
#54 = CYLINDRICAL_SURFACE('',#55,3.);
#55 = AXIS2_PLACEMENT_3D('',#56,#57,#58);
#56 = CARTESIAN_POINT('',(3.,2.4,3.));
#57 = DIRECTION('',(0.,-1.,1.110223024625E-16));
#58 = DIRECTION('',(1.,0.,0.));
#59 = ADVANCED_FACE('',(#60,#134,#145),#156,.T.);
#60 = FACE_BOUND('',#61,.T.);
#61 = EDGE_LOOP('',(#62,#63,#71,#79,#87,#96,#104,#112,#120,#128));
#62 = ORIENTED_EDGE('',*,*,#40,.F.);
#63 = ORIENTED_EDGE('',*,*,#64,.T.);
#64 = EDGE_CURVE('',#33,#65,#67,.T.);
#65 = VERTEX_POINT('',#66);
#66 = CARTESIAN_POINT('',(0.,2.4,10.));
#67 = LINE('',#68,#69);
#68 = CARTESIAN_POINT('',(0.,2.4,3.));
#69 = VECTOR('',#70,1.);
#70 = DIRECTION('',(0.,1.110223024625E-16,1.));
#71 = ORIENTED_EDGE('',*,*,#72,.T.);
#72 = EDGE_CURVE('',#65,#73,#75,.T.);
#73 = VERTEX_POINT('',#74);
#74 = CARTESIAN_POINT('',(111.,2.4,10.));
#75 = LINE('',#76,#77);
#76 = CARTESIAN_POINT('',(27.25,2.4,10.));
#77 = VECTOR('',#78,1.);
#78 = DIRECTION('',(1.,0.,0.));
#79 = ORIENTED_EDGE('',*,*,#80,.F.);
#80 = EDGE_CURVE('',#81,#73,#83,.T.);
#81 = VERTEX_POINT('',#82);
#82 = CARTESIAN_POINT('',(111.,2.4,3.));
#83 = LINE('',#84,#85);
#84 = CARTESIAN_POINT('',(111.,2.4,3.));
#85 = VECTOR('',#86,1.);
#86 = DIRECTION('',(0.,1.110223024625E-16,1.));
#87 = ORIENTED_EDGE('',*,*,#88,.F.);
#88 = EDGE_CURVE('',#89,#81,#91,.T.);
#89 = VERTEX_POINT('',#90);
#90 = CARTESIAN_POINT('',(108.,2.4,2.22044604925E-15));
#91 = CIRCLE('',#92,3.);
#92 = AXIS2_PLACEMENT_3D('',#93,#94,#95);
#93 = CARTESIAN_POINT('',(108.,2.4,3.));
#94 = DIRECTION('',(0.,-1.,1.110223024625E-16));
#95 = DIRECTION('',(1.,0.,0.));
#96 = ORIENTED_EDGE('',*,*,#97,.F.);
#97 = EDGE_CURVE('',#98,#89,#100,.T.);
#98 = VERTEX_POINT('',#99);
#99 = CARTESIAN_POINT('',(101.3,2.4,2.22044604925E-15));
#100 = LINE('',#101,#102);
#101 = CARTESIAN_POINT('',(3.,2.4,2.22044604925E-15));
#102 = VECTOR('',#103,1.);
#103 = DIRECTION('',(1.,0.,0.));
#104 = ORIENTED_EDGE('',*,*,#105,.T.);
#105 = EDGE_CURVE('',#98,#106,#108,.T.);
#106 = VERTEX_POINT('',#107);
#107 = CARTESIAN_POINT('',(101.3,2.4,2.4));
#108 = LINE('',#109,#110);
#109 = CARTESIAN_POINT('',(101.3,2.4,2.22044604925E-15));
#110 = VECTOR('',#111,1.);
#111 = DIRECTION('',(0.,1.110223024625E-16,1.));
#112 = ORIENTED_EDGE('',*,*,#113,.F.);
#113 = EDGE_CURVE('',#114,#106,#116,.T.);
#114 = VERTEX_POINT('',#115);
#115 = CARTESIAN_POINT('',(9.7,2.4,2.4));
#116 = LINE('',#117,#118);
#117 = CARTESIAN_POINT('',(9.7,2.4,2.4));
#118 = VECTOR('',#119,1.);
#119 = DIRECTION('',(1.,0.,0.));
#120 = ORIENTED_EDGE('',*,*,#121,.F.);
#121 = EDGE_CURVE('',#122,#114,#124,.T.);
#122 = VERTEX_POINT('',#123);
#123 = CARTESIAN_POINT('',(9.7,2.4,2.22044604925E-15));
#124 = LINE('',#125,#126);
#125 = CARTESIAN_POINT('',(9.7,2.4,2.22044604925E-15));
#126 = VECTOR('',#127,1.);
#127 = DIRECTION('',(0.,1.110223024625E-16,1.));
#128 = ORIENTED_EDGE('',*,*,#129,.F.);
#129 = EDGE_CURVE('',#41,#122,#130,.T.);
#130 = LINE('',#131,#132);
#131 = CARTESIAN_POINT('',(3.,2.4,2.22044604925E-15));
#132 = VECTOR('',#133,1.);
#133 = DIRECTION('',(1.,0.,0.));
#134 = FACE_BOUND('',#135,.T.);
#135 = EDGE_LOOP('',(#136));
#136 = ORIENTED_EDGE('',*,*,#137,.T.);
#137 = EDGE_CURVE('',#138,#138,#140,.T.);
#138 = VERTEX_POINT('',#139);
#139 = CARTESIAN_POINT('',(107.7,2.4,5.));
#140 = CIRCLE('',#141,1.7);
#141 = AXIS2_PLACEMENT_3D('',#142,#143,#144);
#142 = CARTESIAN_POINT('',(106.,2.4,5.));
#143 = DIRECTION('',(0.,-1.,1.110223024625E-16));
#144 = DIRECTION('',(1.,0.,0.));
#145 = FACE_BOUND('',#146,.T.);
#146 = EDGE_LOOP('',(#147));
#147 = ORIENTED_EDGE('',*,*,#148,.T.);
#148 = EDGE_CURVE('',#149,#149,#151,.T.);
#149 = VERTEX_POINT('',#150);
#150 = CARTESIAN_POINT('',(6.7,2.4,5.));
#151 = CIRCLE('',#152,1.7);
#152 = AXIS2_PLACEMENT_3D('',#153,#154,#155);
#153 = CARTESIAN_POINT('',(5.,2.4,5.));
#154 = DIRECTION('',(0.,-1.,1.110223024625E-16));
#155 = DIRECTION('',(1.,0.,0.));
#156 = PLANE('',#157);
#157 = AXIS2_PLACEMENT_3D('',#158,#159,#160);
#158 = CARTESIAN_POINT('',(55.5,2.4,49.5));
#159 = DIRECTION('',(-0.,1.,-1.110223024625E-16));
#160 = DIRECTION('',(-1.,0.,0.));
#161 = ADVANCED_FACE('',(#162),#188,.T.);
#162 = FACE_BOUND('',#163,.T.);
#163 = EDGE_LOOP('',(#164,#175,#181,#182));
#164 = ORIENTED_EDGE('',*,*,#165,.F.);
#165 = EDGE_CURVE('',#166,#168,#170,.T.);
#166 = VERTEX_POINT('',#167);
#167 = CARTESIAN_POINT('',(108.,0.,2.48689957516E-15));
#168 = VERTEX_POINT('',#169);
#169 = CARTESIAN_POINT('',(111.,3.552713678801E-15,3.));
#170 = CIRCLE('',#171,3.);
#171 = AXIS2_PLACEMENT_3D('',#172,#173,#174);
#172 = CARTESIAN_POINT('',(108.,0.,3.));
#173 = DIRECTION('',(0.,-1.,1.110223024625E-16));
#174 = DIRECTION('',(1.,0.,0.));
#175 = ORIENTED_EDGE('',*,*,#176,.F.);
#176 = EDGE_CURVE('',#89,#166,#177,.T.);
#177 = LINE('',#178,#179);
#178 = CARTESIAN_POINT('',(108.,2.4,2.22044604925E-15));
#179 = VECTOR('',#180,1.);
#180 = DIRECTION('',(0.,-1.,1.110223024625E-16));
#181 = ORIENTED_EDGE('',*,*,#88,.T.);
#182 = ORIENTED_EDGE('',*,*,#183,.T.);
#183 = EDGE_CURVE('',#81,#168,#184,.T.);
#184 = LINE('',#185,#186);
#185 = CARTESIAN_POINT('',(111.,2.4,3.));
#186 = VECTOR('',#187,1.);
#187 = DIRECTION('',(0.,-1.,1.110223024625E-16));
#188 = CYLINDRICAL_SURFACE('',#189,3.);
#189 = AXIS2_PLACEMENT_3D('',#190,#191,#192);
#190 = CARTESIAN_POINT('',(108.,2.4,3.));
#191 = DIRECTION('',(0.,-1.,1.110223024625E-16));
#192 = DIRECTION('',(1.,0.,0.));
#193 = ADVANCED_FACE('',(#194),#213,.F.);
#194 = FACE_BOUND('',#195,.F.);
#195 = EDGE_LOOP('',(#196,#205,#211,#212));
#196 = ORIENTED_EDGE('',*,*,#197,.F.);
#197 = EDGE_CURVE('',#198,#198,#200,.T.);
#198 = VERTEX_POINT('',#199);
#199 = CARTESIAN_POINT('',(6.7,-3.552713678801E-15,5.));
#200 = CIRCLE('',#201,1.7);
#201 = AXIS2_PLACEMENT_3D('',#202,#203,#204);
#202 = CARTESIAN_POINT('',(5.,-3.552713678801E-15,5.));
#203 = DIRECTION('',(0.,-1.,1.110223024625E-16));
#204 = DIRECTION('',(1.,0.,0.));
#205 = ORIENTED_EDGE('',*,*,#206,.F.);
#206 = EDGE_CURVE('',#149,#198,#207,.T.);
#207 = LINE('',#208,#209);
#208 = CARTESIAN_POINT('',(6.7,3.4,5.));
#209 = VECTOR('',#210,1.);
#210 = DIRECTION('',(0.,-1.,1.110223024625E-16));
#211 = ORIENTED_EDGE('',*,*,#148,.T.);
#212 = ORIENTED_EDGE('',*,*,#206,.T.);
#213 = CYLINDRICAL_SURFACE('',#214,1.7);
#214 = AXIS2_PLACEMENT_3D('',#215,#216,#217);
#215 = CARTESIAN_POINT('',(5.,3.4,5.));
#216 = DIRECTION('',(0.,-1.,1.110223024625E-16));
#217 = DIRECTION('',(1.,0.,0.));
#218 = ADVANCED_FACE('',(#219),#238,.F.);
#219 = FACE_BOUND('',#220,.F.);
#220 = EDGE_LOOP('',(#221,#230,#236,#237));
#221 = ORIENTED_EDGE('',*,*,#222,.F.);
#222 = EDGE_CURVE('',#223,#223,#225,.T.);
#223 = VERTEX_POINT('',#224);
#224 = CARTESIAN_POINT('',(107.7,-3.552713678801E-15,5.));
#225 = CIRCLE('',#226,1.7);
#226 = AXIS2_PLACEMENT_3D('',#227,#228,#229);
#227 = CARTESIAN_POINT('',(106.,-3.552713678801E-15,5.));
#228 = DIRECTION('',(0.,-1.,1.110223024625E-16));
#229 = DIRECTION('',(1.,0.,0.));
#230 = ORIENTED_EDGE('',*,*,#231,.F.);
#231 = EDGE_CURVE('',#138,#223,#232,.T.);
#232 = LINE('',#233,#234);
#233 = CARTESIAN_POINT('',(107.7,3.4,5.));
#234 = VECTOR('',#235,1.);
#235 = DIRECTION('',(0.,-1.,1.110223024625E-16));
#236 = ORIENTED_EDGE('',*,*,#137,.T.);
#237 = ORIENTED_EDGE('',*,*,#231,.T.);
#238 = CYLINDRICAL_SURFACE('',#239,1.7);
#239 = AXIS2_PLACEMENT_3D('',#240,#241,#242);
#240 = CARTESIAN_POINT('',(106.,3.4,5.));
#241 = DIRECTION('',(0.,-1.,1.110223024625E-16));
#242 = DIRECTION('',(1.,0.,0.));
#243 = ADVANCED_FACE('',(#244),#269,.T.);
#244 = FACE_BOUND('',#245,.T.);
#245 = EDGE_LOOP('',(#246,#247,#255,#263));
#246 = ORIENTED_EDGE('',*,*,#72,.F.);
#247 = ORIENTED_EDGE('',*,*,#248,.T.);
#248 = EDGE_CURVE('',#65,#249,#251,.T.);
#249 = VERTEX_POINT('',#250);
#250 = CARTESIAN_POINT('',(0.,1.2,10.));
#251 = LINE('',#252,#253);
#252 = CARTESIAN_POINT('',(0.,2.9,10.));
#253 = VECTOR('',#254,1.);
#254 = DIRECTION('',(0.,-1.,1.110223024625E-16));
#255 = ORIENTED_EDGE('',*,*,#256,.T.);
#256 = EDGE_CURVE('',#249,#257,#259,.T.);
#257 = VERTEX_POINT('',#258);
#258 = CARTESIAN_POINT('',(111.,1.2,10.));
#259 = LINE('',#260,#261);
#260 = CARTESIAN_POINT('',(-0.5,1.2,10.));
#261 = VECTOR('',#262,1.);
#262 = DIRECTION('',(1.,0.,0.));
#263 = ORIENTED_EDGE('',*,*,#264,.F.);
#264 = EDGE_CURVE('',#73,#257,#265,.T.);
#265 = LINE('',#266,#267);
#266 = CARTESIAN_POINT('',(111.,2.9,10.));
#267 = VECTOR('',#268,1.);
#268 = DIRECTION('',(0.,-1.,1.110223024625E-16));
#269 = PLANE('',#270);
#270 = AXIS2_PLACEMENT_3D('',#271,#272,#273);
#271 = CARTESIAN_POINT('',(-1.,3.4,10.));
#272 = DIRECTION('',(0.,1.110223024625E-16,1.));
#273 = DIRECTION('',(0.,-1.,1.110223024625E-16));
#274 = ADVANCED_FACE('',(#275),#332,.T.);
#275 = FACE_BOUND('',#276,.T.);
#276 = EDGE_LOOP('',(#277,#287,#295,#303,#309,#310,#318,#326));
#277 = ORIENTED_EDGE('',*,*,#278,.F.);
#278 = EDGE_CURVE('',#279,#281,#283,.T.);
#279 = VERTEX_POINT('',#280);
#280 = CARTESIAN_POINT('',(17.7,20.2,2.4));
#281 = VERTEX_POINT('',#282);
#282 = CARTESIAN_POINT('',(93.3,20.2,2.4));
#283 = LINE('',#284,#285);
#284 = CARTESIAN_POINT('',(9.7,20.2,2.4));
#285 = VECTOR('',#286,1.);
#286 = DIRECTION('',(1.,0.,0.));
#287 = ORIENTED_EDGE('',*,*,#288,.T.);
#288 = EDGE_CURVE('',#279,#289,#291,.T.);
#289 = VERTEX_POINT('',#290);
#290 = CARTESIAN_POINT('',(17.7,18.6,2.4));
#291 = LINE('',#292,#293);
#292 = CARTESIAN_POINT('',(17.7,20.2,2.4));
#293 = VECTOR('',#294,1.);
#294 = DIRECTION('',(0.,-1.,1.110223024625E-16));
#295 = ORIENTED_EDGE('',*,*,#296,.F.);
#296 = EDGE_CURVE('',#297,#289,#299,.T.);
#297 = VERTEX_POINT('',#298);
#298 = CARTESIAN_POINT('',(9.7,18.6,2.4));
#299 = LINE('',#300,#301);
#300 = CARTESIAN_POINT('',(9.7,18.6,2.4));
#301 = VECTOR('',#302,1.);
#302 = DIRECTION('',(1.,0.,0.));
#303 = ORIENTED_EDGE('',*,*,#304,.T.);
#304 = EDGE_CURVE('',#297,#114,#305,.T.);
#305 = LINE('',#306,#307);
#306 = CARTESIAN_POINT('',(9.7,20.2,2.4));
#307 = VECTOR('',#308,1.);
#308 = DIRECTION('',(0.,-1.,1.110223024625E-16));
#309 = ORIENTED_EDGE('',*,*,#113,.T.);
#310 = ORIENTED_EDGE('',*,*,#311,.F.);
#311 = EDGE_CURVE('',#312,#106,#314,.T.);
#312 = VERTEX_POINT('',#313);
#313 = CARTESIAN_POINT('',(101.3,18.6,2.4));
#314 = LINE('',#315,#316);
#315 = CARTESIAN_POINT('',(101.3,20.2,2.4));
#316 = VECTOR('',#317,1.);
#317 = DIRECTION('',(0.,-1.,1.110223024625E-16));
#318 = ORIENTED_EDGE('',*,*,#319,.F.);
#319 = EDGE_CURVE('',#320,#312,#322,.T.);
#320 = VERTEX_POINT('',#321);
#321 = CARTESIAN_POINT('',(93.3,18.6,2.4));
#322 = LINE('',#323,#324);
#323 = CARTESIAN_POINT('',(93.3,18.6,2.4));
#324 = VECTOR('',#325,1.);
#325 = DIRECTION('',(1.,0.,0.));
#326 = ORIENTED_EDGE('',*,*,#327,.F.);
#327 = EDGE_CURVE('',#281,#320,#328,.T.);
#328 = LINE('',#329,#330);
#329 = CARTESIAN_POINT('',(93.3,20.2,2.4));
#330 = VECTOR('',#331,1.);
#331 = DIRECTION('',(0.,-1.,1.110223024625E-16));
#332 = PLANE('',#333);
#333 = AXIS2_PLACEMENT_3D('',#334,#335,#336);
#334 = CARTESIAN_POINT('',(9.7,20.2,2.4));
#335 = DIRECTION('',(0.,1.110223024625E-16,1.));
#336 = DIRECTION('',(0.,-1.,1.110223024625E-16));
#337 = ADVANCED_FACE('',(#338),#363,.F.);
#338 = FACE_BOUND('',#339,.F.);
#339 = EDGE_LOOP('',(#340,#348,#349,#357));
#340 = ORIENTED_EDGE('',*,*,#341,.F.);
#341 = EDGE_CURVE('',#249,#342,#344,.T.);
#342 = VERTEX_POINT('',#343);
#343 = CARTESIAN_POINT('',(0.,1.2,14.5));
#344 = LINE('',#345,#346);
#345 = CARTESIAN_POINT('',(0.,1.2,9.5));
#346 = VECTOR('',#347,1.);
#347 = DIRECTION('',(0.,1.110223024625E-16,1.));
#348 = ORIENTED_EDGE('',*,*,#256,.T.);
#349 = ORIENTED_EDGE('',*,*,#350,.T.);
#350 = EDGE_CURVE('',#257,#351,#353,.T.);
#351 = VERTEX_POINT('',#352);
#352 = CARTESIAN_POINT('',(111.,1.2,14.5));
#353 = LINE('',#354,#355);
#354 = CARTESIAN_POINT('',(111.,1.2,9.5));
#355 = VECTOR('',#356,1.);
#356 = DIRECTION('',(0.,1.110223024625E-16,1.));
#357 = ORIENTED_EDGE('',*,*,#358,.F.);
#358 = EDGE_CURVE('',#342,#351,#359,.T.);
#359 = LINE('',#360,#361);
#360 = CARTESIAN_POINT('',(0.,1.2,14.5));
#361 = VECTOR('',#362,1.);
#362 = DIRECTION('',(1.,0.,0.));
#363 = PLANE('',#364);
#364 = AXIS2_PLACEMENT_3D('',#365,#366,#367);
#365 = CARTESIAN_POINT('',(0.,1.2,9.5));
#366 = DIRECTION('',(0.,-1.,1.110223024625E-16));
#367 = DIRECTION('',(1.,0.,0.));
#368 = ADVANCED_FACE('',(#369),#394,.F.);
#369 = FACE_BOUND('',#370,.F.);
#370 = EDGE_LOOP('',(#371,#372,#380,#388));
#371 = ORIENTED_EDGE('',*,*,#327,.F.);
#372 = ORIENTED_EDGE('',*,*,#373,.T.);
#373 = EDGE_CURVE('',#281,#374,#376,.T.);
#374 = VERTEX_POINT('',#375);
#375 = CARTESIAN_POINT('',(93.3,20.2,11.4));
#376 = LINE('',#377,#378);
#377 = CARTESIAN_POINT('',(93.3,20.2,2.4));
#378 = VECTOR('',#379,1.);
#379 = DIRECTION('',(0.,1.110223024625E-16,1.));
#380 = ORIENTED_EDGE('',*,*,#381,.T.);
#381 = EDGE_CURVE('',#374,#382,#384,.T.);
#382 = VERTEX_POINT('',#383);
#383 = CARTESIAN_POINT('',(93.3,18.6,11.4));
#384 = LINE('',#385,#386);
#385 = CARTESIAN_POINT('',(93.3,20.2,11.4));
#386 = VECTOR('',#387,1.);
#387 = DIRECTION('',(0.,-1.,1.110223024625E-16));
#388 = ORIENTED_EDGE('',*,*,#389,.F.);
#389 = EDGE_CURVE('',#320,#382,#390,.T.);
#390 = LINE('',#391,#392);
#391 = CARTESIAN_POINT('',(93.3,18.6,2.4));
#392 = VECTOR('',#393,1.);
#393 = DIRECTION('',(0.,1.110223024625E-16,1.));
#394 = PLANE('',#395);
#395 = AXIS2_PLACEMENT_3D('',#396,#397,#398);
#396 = CARTESIAN_POINT('',(93.3,20.2,2.4));
#397 = DIRECTION('',(1.,0.,0.));
#398 = DIRECTION('',(0.,-1.,1.110223024625E-16));
#399 = ADVANCED_FACE('',(#400),#418,.T.);
#400 = FACE_BOUND('',#401,.T.);
#401 = EDGE_LOOP('',(#402,#403,#404,#412));
#402 = ORIENTED_EDGE('',*,*,#389,.F.);
#403 = ORIENTED_EDGE('',*,*,#319,.T.);
#404 = ORIENTED_EDGE('',*,*,#405,.T.);
#405 = EDGE_CURVE('',#312,#406,#408,.T.);
#406 = VERTEX_POINT('',#407);
#407 = CARTESIAN_POINT('',(101.3,18.6,11.4));
#408 = LINE('',#409,#410);
#409 = CARTESIAN_POINT('',(101.3,18.6,2.4));
#410 = VECTOR('',#411,1.);
#411 = DIRECTION('',(0.,1.110223024625E-16,1.));
#412 = ORIENTED_EDGE('',*,*,#413,.F.);
#413 = EDGE_CURVE('',#382,#406,#414,.T.);
#414 = LINE('',#415,#416);
#415 = CARTESIAN_POINT('',(93.3,18.6,11.4));
#416 = VECTOR('',#417,1.);
#417 = DIRECTION('',(1.,0.,0.));
#418 = PLANE('',#419);
#419 = AXIS2_PLACEMENT_3D('',#420,#421,#422);
#420 = CARTESIAN_POINT('',(93.3,18.6,2.4));
#421 = DIRECTION('',(0.,-1.,1.110223024625E-16));
#422 = DIRECTION('',(1.,0.,0.));
#423 = ADVANCED_FACE('',(#424),#449,.T.);
#424 = FACE_BOUND('',#425,.T.);
#425 = EDGE_LOOP('',(#426,#434,#435,#443));
#426 = ORIENTED_EDGE('',*,*,#427,.F.);
#427 = EDGE_CURVE('',#297,#428,#430,.T.);
#428 = VERTEX_POINT('',#429);
#429 = CARTESIAN_POINT('',(9.7,18.6,11.4));
#430 = LINE('',#431,#432);
#431 = CARTESIAN_POINT('',(9.7,18.6,2.4));
#432 = VECTOR('',#433,1.);
#433 = DIRECTION('',(0.,1.110223024625E-16,1.));
#434 = ORIENTED_EDGE('',*,*,#296,.T.);
#435 = ORIENTED_EDGE('',*,*,#436,.T.);
#436 = EDGE_CURVE('',#289,#437,#439,.T.);
#437 = VERTEX_POINT('',#438);
#438 = CARTESIAN_POINT('',(17.7,18.6,11.4));
#439 = LINE('',#440,#441);
#440 = CARTESIAN_POINT('',(17.7,18.6,2.4));
#441 = VECTOR('',#442,1.);
#442 = DIRECTION('',(0.,1.110223024625E-16,1.));
#443 = ORIENTED_EDGE('',*,*,#444,.F.);
#444 = EDGE_CURVE('',#428,#437,#445,.T.);
#445 = LINE('',#446,#447);
#446 = CARTESIAN_POINT('',(9.7,18.6,11.4));
#447 = VECTOR('',#448,1.);
#448 = DIRECTION('',(1.,0.,0.));
#449 = PLANE('',#450);
#450 = AXIS2_PLACEMENT_3D('',#451,#452,#453);
#451 = CARTESIAN_POINT('',(9.7,18.6,2.4));
#452 = DIRECTION('',(0.,-1.,1.110223024625E-16));
#453 = DIRECTION('',(1.,0.,0.));
#454 = ADVANCED_FACE('',(#455),#473,.T.);
#455 = FACE_BOUND('',#456,.T.);
#456 = EDGE_LOOP('',(#457,#458,#466,#472));
#457 = ORIENTED_EDGE('',*,*,#288,.F.);
#458 = ORIENTED_EDGE('',*,*,#459,.T.);
#459 = EDGE_CURVE('',#279,#460,#462,.T.);
#460 = VERTEX_POINT('',#461);
#461 = CARTESIAN_POINT('',(17.7,20.2,11.4));
#462 = LINE('',#463,#464);
#463 = CARTESIAN_POINT('',(17.7,20.2,2.4));
#464 = VECTOR('',#465,1.);
#465 = DIRECTION('',(0.,1.110223024625E-16,1.));
#466 = ORIENTED_EDGE('',*,*,#467,.T.);
#467 = EDGE_CURVE('',#460,#437,#468,.T.);
#468 = LINE('',#469,#470);
#469 = CARTESIAN_POINT('',(17.7,20.2,11.4));
#470 = VECTOR('',#471,1.);
#471 = DIRECTION('',(0.,-1.,1.110223024625E-16));
#472 = ORIENTED_EDGE('',*,*,#436,.F.);
#473 = PLANE('',#474);
#474 = AXIS2_PLACEMENT_3D('',#475,#476,#477);
#475 = CARTESIAN_POINT('',(17.7,20.2,2.4));
#476 = DIRECTION('',(1.,0.,0.));
#477 = DIRECTION('',(0.,-1.,1.110223024625E-16));
#478 = ADVANCED_FACE('',(#479),#504,.T.);
#479 = FACE_BOUND('',#480,.T.);
#480 = EDGE_LOOP('',(#481,#482,#490,#498));
#481 = ORIENTED_EDGE('',*,*,#358,.F.);
#482 = ORIENTED_EDGE('',*,*,#483,.T.);
#483 = EDGE_CURVE('',#342,#484,#486,.T.);
#484 = VERTEX_POINT('',#485);
#485 = CARTESIAN_POINT('',(0.,0.,14.5));
#486 = LINE('',#487,#488);
#487 = CARTESIAN_POINT('',(0.,1.2,14.5));
#488 = VECTOR('',#489,1.);
#489 = DIRECTION('',(0.,-1.,1.110223024625E-16));
#490 = ORIENTED_EDGE('',*,*,#491,.T.);
#491 = EDGE_CURVE('',#484,#492,#494,.T.);
#492 = VERTEX_POINT('',#493);
#493 = CARTESIAN_POINT('',(111.,0.,14.5));
#494 = LINE('',#495,#496);
#495 = CARTESIAN_POINT('',(0.,0.,14.5));
#496 = VECTOR('',#497,1.);
#497 = DIRECTION('',(1.,0.,0.));
#498 = ORIENTED_EDGE('',*,*,#499,.F.);
#499 = EDGE_CURVE('',#351,#492,#500,.T.);
#500 = LINE('',#501,#502);
#501 = CARTESIAN_POINT('',(111.,1.2,14.5));
#502 = VECTOR('',#503,1.);
#503 = DIRECTION('',(0.,-1.,1.110223024625E-16));
#504 = PLANE('',#505);
#505 = AXIS2_PLACEMENT_3D('',#506,#507,#508);
#506 = CARTESIAN_POINT('',(0.,1.2,14.5));
#507 = DIRECTION('',(0.,1.110223024625E-16,1.));
#508 = DIRECTION('',(0.,-1.,1.110223024625E-16));
#509 = ADVANCED_FACE('',(#510),#528,.T.);
#510 = FACE_BOUND('',#511,.T.);
#511 = EDGE_LOOP('',(#512,#520,#526,#527));
#512 = ORIENTED_EDGE('',*,*,#513,.F.);
#513 = EDGE_CURVE('',#514,#460,#516,.T.);
#514 = VERTEX_POINT('',#515);
#515 = CARTESIAN_POINT('',(9.7,20.2,11.4));
#516 = LINE('',#517,#518);
#517 = CARTESIAN_POINT('',(9.7,20.2,11.4));
#518 = VECTOR('',#519,1.);
#519 = DIRECTION('',(1.,0.,0.));
#520 = ORIENTED_EDGE('',*,*,#521,.T.);
#521 = EDGE_CURVE('',#514,#428,#522,.T.);
#522 = LINE('',#523,#524);
#523 = CARTESIAN_POINT('',(9.7,20.2,11.4));
#524 = VECTOR('',#525,1.);
#525 = DIRECTION('',(0.,-1.,1.110223024625E-16));
#526 = ORIENTED_EDGE('',*,*,#444,.T.);
#527 = ORIENTED_EDGE('',*,*,#467,.F.);
#528 = PLANE('',#529);
#529 = AXIS2_PLACEMENT_3D('',#530,#531,#532);
#530 = CARTESIAN_POINT('',(9.7,20.2,11.4));
#531 = DIRECTION('',(0.,1.110223024625E-16,1.));
#532 = DIRECTION('',(0.,-1.,1.110223024625E-16));
#533 = ADVANCED_FACE('',(#534),#552,.T.);
#534 = FACE_BOUND('',#535,.T.);
#535 = EDGE_LOOP('',(#536,#544,#545,#546));
#536 = ORIENTED_EDGE('',*,*,#537,.F.);
#537 = EDGE_CURVE('',#374,#538,#540,.T.);
#538 = VERTEX_POINT('',#539);
#539 = CARTESIAN_POINT('',(101.3,20.2,11.4));
#540 = LINE('',#541,#542);
#541 = CARTESIAN_POINT('',(93.3,20.2,11.4));
#542 = VECTOR('',#543,1.);
#543 = DIRECTION('',(1.,0.,0.));
#544 = ORIENTED_EDGE('',*,*,#381,.T.);
#545 = ORIENTED_EDGE('',*,*,#413,.T.);
#546 = ORIENTED_EDGE('',*,*,#547,.F.);
#547 = EDGE_CURVE('',#538,#406,#548,.T.);
#548 = LINE('',#549,#550);
#549 = CARTESIAN_POINT('',(101.3,20.2,11.4));
#550 = VECTOR('',#551,1.);
#551 = DIRECTION('',(0.,-1.,1.110223024625E-16));
#552 = PLANE('',#553);
#553 = AXIS2_PLACEMENT_3D('',#554,#555,#556);
#554 = CARTESIAN_POINT('',(93.3,20.2,11.4));
#555 = DIRECTION('',(0.,1.110223024625E-16,1.));
#556 = DIRECTION('',(0.,-1.,1.110223024625E-16));
#557 = ADVANCED_FACE('',(#558,#581,#584),#587,.T.);
#558 = FACE_BOUND('',#559,.T.);
#559 = EDGE_LOOP('',(#560,#561,#567,#568,#574,#575));
#560 = ORIENTED_EDGE('',*,*,#21,.T.);
#561 = ORIENTED_EDGE('',*,*,#562,.T.);
#562 = EDGE_CURVE('',#24,#166,#563,.T.);
#563 = LINE('',#564,#565);
#564 = CARTESIAN_POINT('',(3.,0.,2.48689957516E-15));
#565 = VECTOR('',#566,1.);
#566 = DIRECTION('',(1.,0.,0.));
#567 = ORIENTED_EDGE('',*,*,#165,.T.);
#568 = ORIENTED_EDGE('',*,*,#569,.T.);
#569 = EDGE_CURVE('',#168,#492,#570,.T.);
#570 = LINE('',#571,#572);
#571 = CARTESIAN_POINT('',(111.,0.,3.));
#572 = VECTOR('',#573,1.);
#573 = DIRECTION('',(0.,1.110223024625E-16,1.));
#574 = ORIENTED_EDGE('',*,*,#491,.F.);
#575 = ORIENTED_EDGE('',*,*,#576,.F.);
#576 = EDGE_CURVE('',#22,#484,#577,.T.);
#577 = LINE('',#578,#579);
#578 = CARTESIAN_POINT('',(0.,0.,9.5));
#579 = VECTOR('',#580,1.);
#580 = DIRECTION('',(0.,1.110223024625E-16,1.));
#581 = FACE_BOUND('',#582,.T.);
#582 = EDGE_LOOP('',(#583));
#583 = ORIENTED_EDGE('',*,*,#222,.F.);
#584 = FACE_BOUND('',#585,.T.);
#585 = EDGE_LOOP('',(#586));
#586 = ORIENTED_EDGE('',*,*,#197,.F.);
#587 = PLANE('',#588);
#588 = AXIS2_PLACEMENT_3D('',#589,#590,#591);
#589 = CARTESIAN_POINT('',(55.5,-3.552713678801E-15,7.334625620195));
#590 = DIRECTION('',(0.,-1.,1.110223024625E-16));
#591 = DIRECTION('',(1.,0.,0.));
#592 = ADVANCED_FACE('',(#593),#622,.T.);
#593 = FACE_BOUND('',#594,.T.);
#594 = EDGE_LOOP('',(#595,#596,#604,#612,#618,#619,#620,#621));
#595 = ORIENTED_EDGE('',*,*,#129,.T.);
#596 = ORIENTED_EDGE('',*,*,#597,.F.);
#597 = EDGE_CURVE('',#598,#122,#600,.T.);
#598 = VERTEX_POINT('',#599);
#599 = CARTESIAN_POINT('',(9.7,20.2,2.442490654175E-16));
#600 = LINE('',#601,#602);
#601 = CARTESIAN_POINT('',(9.7,20.2,2.442490654175E-16));
#602 = VECTOR('',#603,1.);
#603 = DIRECTION('',(0.,-1.,1.110223024625E-16));
#604 = ORIENTED_EDGE('',*,*,#605,.T.);
#605 = EDGE_CURVE('',#598,#606,#608,.T.);
#606 = VERTEX_POINT('',#607);
#607 = CARTESIAN_POINT('',(101.3,20.2,2.442490654175E-16));
#608 = LINE('',#609,#610);
#609 = CARTESIAN_POINT('',(9.7,20.2,2.442490654175E-16));
#610 = VECTOR('',#611,1.);
#611 = DIRECTION('',(1.,0.,0.));
#612 = ORIENTED_EDGE('',*,*,#613,.T.);
#613 = EDGE_CURVE('',#606,#98,#614,.T.);
#614 = LINE('',#615,#616);
#615 = CARTESIAN_POINT('',(101.3,20.2,2.442490654175E-16));
#616 = VECTOR('',#617,1.);
#617 = DIRECTION('',(0.,-1.,1.110223024625E-16));
#618 = ORIENTED_EDGE('',*,*,#97,.T.);
#619 = ORIENTED_EDGE('',*,*,#176,.T.);
#620 = ORIENTED_EDGE('',*,*,#562,.F.);
#621 = ORIENTED_EDGE('',*,*,#49,.F.);
#622 = PLANE('',#623);
#623 = AXIS2_PLACEMENT_3D('',#624,#625,#626);
#624 = CARTESIAN_POINT('',(55.5,9.147444089457,1.471329270702E-15));
#625 = DIRECTION('',(-0.,-1.110223024625E-16,-1.));
#626 = DIRECTION('',(0.,1.,-1.110223024625E-16));
#627 = ADVANCED_FACE('',(#628),#636,.T.);
#628 = FACE_BOUND('',#629,.T.);
#629 = EDGE_LOOP('',(#630,#631,#632,#633,#634,#635));
#630 = ORIENTED_EDGE('',*,*,#32,.T.);
#631 = ORIENTED_EDGE('',*,*,#576,.T.);
#632 = ORIENTED_EDGE('',*,*,#483,.F.);
#633 = ORIENTED_EDGE('',*,*,#341,.F.);
#634 = ORIENTED_EDGE('',*,*,#248,.F.);
#635 = ORIENTED_EDGE('',*,*,#64,.F.);
#636 = PLANE('',#637);
#637 = AXIS2_PLACEMENT_3D('',#638,#639,#640);
#638 = CARTESIAN_POINT('',(0.,1.005755395683,8.555755395683));
#639 = DIRECTION('',(-1.,0.,-0.));
#640 = DIRECTION('',(0.,1.,-1.110223024625E-16));
#641 = ADVANCED_FACE('',(#642),#650,.T.);
#642 = FACE_BOUND('',#643,.T.);
#643 = EDGE_LOOP('',(#644,#645,#646,#647,#648,#649));
#644 = ORIENTED_EDGE('',*,*,#183,.F.);
#645 = ORIENTED_EDGE('',*,*,#80,.T.);
#646 = ORIENTED_EDGE('',*,*,#264,.T.);
#647 = ORIENTED_EDGE('',*,*,#350,.T.);
#648 = ORIENTED_EDGE('',*,*,#499,.T.);
#649 = ORIENTED_EDGE('',*,*,#569,.F.);
#650 = PLANE('',#651);
#651 = AXIS2_PLACEMENT_3D('',#652,#653,#654);
#652 = CARTESIAN_POINT('',(111.,1.005755395683,8.555755395683));
#653 = DIRECTION('',(1.,0.,0.));
#654 = DIRECTION('',(0.,-1.,1.110223024625E-16));
#655 = ADVANCED_FACE('',(#656),#669,.T.);
#656 = FACE_BOUND('',#657,.T.);
#657 = EDGE_LOOP('',(#658,#659,#660,#661,#662,#663));
#658 = ORIENTED_EDGE('',*,*,#597,.T.);
#659 = ORIENTED_EDGE('',*,*,#121,.T.);
#660 = ORIENTED_EDGE('',*,*,#304,.F.);
#661 = ORIENTED_EDGE('',*,*,#427,.T.);
#662 = ORIENTED_EDGE('',*,*,#521,.F.);
#663 = ORIENTED_EDGE('',*,*,#664,.F.);
#664 = EDGE_CURVE('',#598,#514,#665,.T.);
#665 = LINE('',#666,#667);
#666 = CARTESIAN_POINT('',(9.7,20.2,2.4));
#667 = VECTOR('',#668,1.);
#668 = DIRECTION('',(0.,1.110223024625E-16,1.));
#669 = PLANE('',#670);
#670 = AXIS2_PLACEMENT_3D('',#671,#672,#673);
#671 = CARTESIAN_POINT('',(9.7,13.796575342466,3.203424657534));
#672 = DIRECTION('',(-1.,0.,-0.));
#673 = DIRECTION('',(0.,1.,-1.110223024625E-16));
#674 = ADVANCED_FACE('',(#675),#688,.T.);
#675 = FACE_BOUND('',#676,.T.);
#676 = EDGE_LOOP('',(#677,#678,#684,#685,#686,#687));
#677 = ORIENTED_EDGE('',*,*,#613,.F.);
#678 = ORIENTED_EDGE('',*,*,#679,.T.);
#679 = EDGE_CURVE('',#606,#538,#680,.T.);
#680 = LINE('',#681,#682);
#681 = CARTESIAN_POINT('',(101.3,20.2,2.442490654175E-16));
#682 = VECTOR('',#683,1.);
#683 = DIRECTION('',(0.,1.110223024625E-16,1.));
#684 = ORIENTED_EDGE('',*,*,#547,.T.);
#685 = ORIENTED_EDGE('',*,*,#405,.F.);
#686 = ORIENTED_EDGE('',*,*,#311,.T.);
#687 = ORIENTED_EDGE('',*,*,#105,.F.);
#688 = PLANE('',#689);
#689 = AXIS2_PLACEMENT_3D('',#690,#691,#692);
#690 = CARTESIAN_POINT('',(101.3,13.796575342466,3.203424657534));
#691 = DIRECTION('',(1.,0.,0.));
#692 = DIRECTION('',(0.,-1.,1.110223024625E-16));
#693 = ADVANCED_FACE('',(#694),#704,.T.);
#694 = FACE_BOUND('',#695,.T.);
#695 = EDGE_LOOP('',(#696,#697,#698,#699,#700,#701,#702,#703));
#696 = ORIENTED_EDGE('',*,*,#664,.T.);
#697 = ORIENTED_EDGE('',*,*,#513,.T.);
#698 = ORIENTED_EDGE('',*,*,#459,.F.);
#699 = ORIENTED_EDGE('',*,*,#278,.T.);
#700 = ORIENTED_EDGE('',*,*,#373,.T.);
#701 = ORIENTED_EDGE('',*,*,#537,.T.);
#702 = ORIENTED_EDGE('',*,*,#679,.F.);
#703 = ORIENTED_EDGE('',*,*,#605,.F.);
#704 = PLANE('',#705);
#705 = AXIS2_PLACEMENT_3D('',#706,#707,#708);
#706 = CARTESIAN_POINT('',(55.5,20.2,2.758928571429));
#707 = DIRECTION('',(-0.,1.,-1.110223024625E-16));
#708 = DIRECTION('',(-1.,0.,0.));
#709 = ( GEOMETRIC_REPRESENTATION_CONTEXT(3) 
GLOBAL_UNCERTAINTY_ASSIGNED_CONTEXT((#713)) GLOBAL_UNIT_ASSIGNED_CONTEXT
((#710,#711,#712)) REPRESENTATION_CONTEXT('Context #1',
  '3D Context with UNIT and UNCERTAINTY') );
#710 = ( LENGTH_UNIT() NAMED_UNIT(*) SI_UNIT(.MILLI.,.METRE.) );
#711 = ( NAMED_UNIT(*) PLANE_ANGLE_UNIT() SI_UNIT($,.RADIAN.) );
#712 = ( NAMED_UNIT(*) SI_UNIT($,.STERADIAN.) SOLID_ANGLE_UNIT() );
#713 = UNCERTAINTY_MEASURE_WITH_UNIT(LENGTH_MEASURE(1.E-07),#710,
  'distance_accuracy_value','confusion accuracy');
#714 = PRODUCT_RELATED_PRODUCT_CATEGORY('part',$,(#7));
ENDSEC;
END-ISO-10303-21;
